<?xml version="1.0" standalone="no"?><!DOCTYPE svg PUBLIC "-//W3C//DTD SVG 1.1//EN" "http://www.w3.org/Graphics/SVG/1.1/DTD/svg11.dtd"><svg t="1702348023024" class="icon" viewBox="0 0 1024 1024" version="1.1" xmlns="http://www.w3.org/2000/svg" p-id="5776" xmlns:xlink="http://www.w3.org/1999/xlink" width="64" height="64"><path d="M895.41 369.91L600.56 73.35c-13.34-13.65-35.91-3.75-35.91 14.94v144.57a385.64 385.64 0 0 0-50-3.6c-216.3 0-392.26 173.58-392.26 387.11 0 143.52 79.08 269.87 211.55 338.07 20.83 10.84 40.29-15.23 25.59-32.62-38.43-45.34-57.18-93.95-57.18-148.59 0-134 109.52-243 244.1-243 6.11 0 12.21 0.2 18.21 0.64v150.31c0 18.68 22.57 28.59 35.91 14.94l294.84-296.34a21 21 0 0 0 0-29.87z" p-id="5777"></path></svg>