<svg
  xmlns="http://www.w3.org/2000/svg"
  xmlns:xlink="http://www.w3.org/1999/xlink"
  fill="none"
  version="1.1"
  width="24"
  height="24"
  viewBox="0 0 24 24"
>
  <g>
    <path
      d="M11.75,6.38462L10.25,6.38462L10.25,5.88462L10.75,5.88462L10.75,7.42308L10.25,7.42308L10.25,6.92308L11.75,6.92308L11.75,7.42308L11.25,7.42308L11.25,5.88462L11.75,5.88462L11.75,6.38462ZM12.25,5.38462L12.25,7.92308L9.75,7.92308L9.75,5.38462L11.75,5.38462L12.25,5.38462ZM8.75,6.38462L7.25,6.38462L7.25,5.88462L7.75,5.88462L7.75,7.42308L7.25,7.42308L7.25,6.92308L8.75,6.92308L8.75,7.42308L8.25,7.42308L8.25,5.88462L8.75,5.88462L8.75,6.38462ZM9.25,5.38462L9.25,7.92308L6.75,7.92308L6.75,5.38462L8.75,5.38462L9.25,5.38462ZM5.75,6.38462L4.25,6.38462L4.25,5.88462L4.75,5.88462L4.75,7.42308L4.25,7.42308L4.25,6.92308L5.75,6.92308L5.75,7.42308L5.25,7.42308L5.25,5.88462L5.75,5.88462L5.75,6.38462ZM6.25,5.38462L6.25,7.92308L3.75,7.92308L3.75,5.38462L5.75,5.38462L6.25,5.38462ZM14.75,13.3077L3.84125,13.3077L3.84125,12.8077L4.1549700000000005,13.197L0,16.545L0,1.269231Q0,0.747196,0.36167,0.37625200000000003Q0.7285159999999999,0,1.25,0L14.75,0Q15.2715,0,15.6383,0.376253Q16,0.747197,16,1.269231L16,12.0385Q16,12.5605,15.6383,12.9314Q15.2715,13.3077,14.75,13.3077ZM14.75,12.3077Q15,12.3077,15,12.0385L15,1.269231Q15,1,14.75,1L1.25,1Q1.150164,1,1.07767,1.074353Q1,1.154014,1,1.269231L1,15.5L0.5,15.5L0.18628299999999998,15.1107L3.66487,12.3077L14.75,12.3077Z"
      fill="#808080"
      fill-opacity="1"
    />
  </g>
</svg>