<svg
  xmlns="http://www.w3.org/2000/svg"
  xmlns:xlink="http://www.w3.org/1999/xlink"
  fill="none"
  version="1.1"
  width="24"
  height="24"
  viewBox="0 0 24 24"
>
  <defs>
    <clipPath id="master_svg0_76_0431">
      <rect x="0" y="0" width="24" height="24" rx="0" />
    </clipPath>
  </defs>
  <g clip-path="url(#master_svg0_76_0431)">
    <g>
      <path
        d="M19.6875,6.75L16.125,6.75L16.125,5.4375C16.125,4.5,15.375,3.75,14.4375,3.75L9.5625,3.75C8.625,3.75,7.875,4.5,7.875,5.4375L7.875,6.75L4.3125,6.75C4.0125,6.75,3.75,7.0125,3.75,7.3125C3.75,7.6125,4.0125,7.875,4.3125,7.875L19.6875,7.875C19.9875,7.875,20.25,7.6125,20.25,7.3125C20.25,7.0125,19.9875,6.75,19.6875,6.75ZM9,6.75L9,5.4375C9,5.1375,9.2625,4.875,9.5625,4.875L14.4375,4.875C14.7375,4.875,15,5.1375,15,5.4375L15,6.75L9,6.75ZM17.775,9C17.475,9,17.2125,9.2625,17.2125,9.5625L17.2125,18.075C17.2125,18.6375,16.7625,19.125,16.1625,19.125L7.8,19.125C7.2375,19.125,6.75,18.675,6.75,18.075L6.75,9.5625C6.75,9.2625,6.4875,9,6.1875,9C5.8875,9,5.625,9.2625,5.625,9.5625L5.625,18.075C5.625,19.275,6.6,20.25,7.8,20.25L16.2,20.25C17.4,20.25,18.375,19.275,18.375,18.075L18.375,9.5625C18.3375,9.2625,18.075,9,17.775,9Z"
        fill="#9e9e9e"
        fill-opacity="1"
      />
    </g>
    <g>
      <path
        d="M10.42498779296875,17.4375L10.42498779296875,9.5625C10.42498779296875,9.2625,10.16248779296875,9,9.86248779296875,9C9.56248779296875,9,9.29998779296875,9.2625,9.29998779296875,9.5625L9.29998779296875,17.4375C9.29998779296875,17.7375,9.56248779296875,18,9.86248779296875,18C10.16248779296875,18,10.42498779296875,17.7375,10.42498779296875,17.4375ZM14.69998779296875,17.4375L14.69998779296875,9.5625C14.69998779296875,9.2625,14.43748779296875,9,14.13748779296875,9C13.83748779296875,9,13.57498779296875,9.2625,13.57498779296875,9.5625L13.57498779296875,17.4375C13.57498779296875,17.7375,13.83748779296875,18,14.13748779296875,18C14.43748779296875,18,14.69998779296875,17.7375,14.69998779296875,17.4375Z"
        fill="#9e9e9e"
        fill-opacity="1"
      />
    </g>
  </g>
</svg>