<svg xmlns="http://www.w3.org/2000/svg" xmlns:xlink="http://www.w3.org/1999/xlink" fill="none"
  version="1.1" width="16" height="16" viewBox="0 0 16 16">
  <defs>
    <clipPath id="master_svg0_132_2421">
      <rect x="0" y="0" width="16" height="16" rx="0" />
    </clipPath>
  </defs>
  <g clip-path="url(#master_svg0_132_2421)">
    <g>
      <path
        d="M7.999995649414062,1.0666656494140625C4.188265649414062,1.0666656494140625,1.0666656494140625,3.7199956494140625,1.0666656494140625,7.039995649414062L1.0677323294140626,7.1437356494140625C1.1119990494140626,9.385065649414063,2.5946656494140625,11.369365649414062,4.839735649414063,12.359165649414063L4.914395649414063,12.391165649414063L4.914395649414063,14.399965649414062L4.915995649414063,14.440765649414063C4.945595649414063,14.854965649414062,5.427995649414062,15.082365649414063,5.7682656494140625,14.826165649414062L8.181065649414062,13.011165649414062L8.227995649414062,13.010165649414063C11.935465649414063,12.906965649414062,14.933365649414062,10.293595649414062,14.933365649414062,7.039995649414062C14.933365649414062,3.7199956494140625,11.811765649414063,1.0666656494140625,7.999995649414062,1.0666656494140625ZM7.999995649414062,2.1333356494140627C11.257565649414062,2.1333356494140627,13.866665649414063,4.350935649414062,13.866665649414063,7.039995649414062C13.866665649414063,9.729065649414062,11.257565649414062,11.946665649414063,7.999995649414062,11.946665649414063L7.950665649414063,11.949065649414063C7.852305649414062,11.958165649414063,7.758415649414062,11.994465649414062,7.6794656494140625,12.053865649414062L5.981065649414062,13.330965649414063L5.981065649414062,12.030165649414062C5.981095649414063,11.806965649414062,5.842135649414063,11.607365649414062,5.632795649414063,11.529865649414063C3.5146656494140625,10.745865649414062,2.1333356494140627,8.989335649414063,2.1333356494140627,7.039995649414062C2.1333356494140627,4.350935649414062,4.742395649414062,2.1333356494140627,7.999995649414062,2.1333356494140627Z"
        fill="#444444" fill-opacity="1" />
    </g>
    <g>
      <path
        d="M4.533330047851562,7.4666595458984375C4.733029047851563,7.466650009158437,4.9160020478515625,7.578203545898438,5.007459047851563,7.755726545898438L4.982130047851562,7.717859545898437C5.577859047851563,8.636259545898437,6.4805290478515625,9.168259545898437,7.568259047851562,9.197859545898437L7.664529047851563,9.199189545898438L7.664529047851563,10.265859545898437C6.197869047851563,10.265859545898437,4.950664047851562,9.572529545898437,4.142931047851563,8.382392545898437L4.087197747851563,8.298658545898437L4.089864247851563,8.296792545898438C3.9802560478515625,8.133148545898438,3.9697608478515627,7.922416545898438,4.062566747851562,7.748690545898437C4.155373047851563,7.574965545898437,4.336370047851562,7.466531276898437,4.533330047851562,7.4666595458984375Z"
        fill="#00B386" fill-opacity="1" />
    </g>
  </g>
</svg>