<svg xmlns="http://www.w3.org/2000/svg" xmlns:xlink="http://www.w3.org/1999/xlink" fill="none" version="1.1" width="24" height="24" viewBox="0 0 24 24"><defs><clipPath id="master_svg0_132_2391"><rect x="0" y="0" width="24" height="24" rx="0"/></clipPath></defs><g clip-path="url(#master_svg0_132_2391)"><g><path d="M12.00001552734375,16.884745776367186L17.43971552734375,20.913745776367186C17.55361552734375,20.996945776367188,17.69991552734375,21.021945776367186,17.83501552734375,20.98124577636719C18.05851552734375,20.913745776367186,18.17701552734375,20.69474577636719,18.11251552734375,20.492245776367188L16.027515527343752,13.892245776367188L21.59021552734375,9.744745776367187C21.68931552734375,9.673065776367187,21.74851552734375,9.558735776367188,21.75001552734375,9.436495776367188C21.75001552734375,9.221995776367187,21.56471552734375,9.039745776367187,21.32551552734375,9.038995776367187L14.48171552734375,9.028495776367187L12.40801552734375,2.5334957763671877C12.36481552734375,2.4055657763671876,12.26171552734375,2.3069257763671875,12.13201552734375,2.2694957763671875C11.90101552734375,2.1997457763671875,11.65951552734375,2.3234957763671877,11.59201552734375,2.5334957763671877L9.51824552734375,9.028495776367187L2.6744955273437503,9.039745776367187C2.54140552734375,9.038905776367187,2.4152055273437503,9.098825776367187,2.3317455273437497,9.202495776367188C2.19739552734375,9.372155776367187,2.23301552734375,9.619825776367188,2.40974552734375,9.744745776367187L7.97324552734375,13.892245776367188L5.88749552734375,20.492245776367188C5.85017552734375,20.610445776367186,5.87407552734375,20.739445776367187,5.95124552734375,20.83644577636719C6.09299552734375,21.01794577636719,6.36974552734375,21.054745776367188,6.56024552734375,20.913745776367186L12.00001552734375,16.884745776367186ZM7.45274552734375,22.11974577636719C6.60710552734375,22.744645776367186,5.41800552734375,22.584545776367186,4.76774552734375,21.758245776367186C4.38722552734375,21.272045776367186,4.270795527343751,20.629545776367188,4.456495527343749,20.04074577636719L6.22124552734375,14.457045776367188L1.5134915273437501,10.947045776367187C0.66156302734375,10.318215776367188,0.49793552734375,9.109675776367187,1.15199152734375,8.276995776367187C1.5193005273437499,7.811415776367188,2.07948552734375,7.539745776367187,2.67224552734375,7.539745776367187L8.421745527343749,7.530745776367188L10.16324552734375,2.0774957763671873C10.48199552734375,1.0799957763671875,11.55821552734375,0.5279957763671875,12.56701552734375,0.8347459763671875C13.16911552734375,1.0148857763671875,13.64411552734375,1.4795367763671874,13.83751552734375,2.0774957763671873L15.57901552734375,7.529995776367188L21.32851552734375,7.539745776367187C22.38751552734375,7.541245776367187,23.25221552734375,8.387245776367187,23.25071552734375,9.438745776367188C23.24841552734375,10.033775776367188,22.96541552734375,10.592815776367187,22.48721552734375,10.946945776367187L17.77951552734375,14.456945776367187L19.54421552734375,20.04074577636719C19.86221552734375,21.047945776367186,19.28471552734375,22.111445776367187,18.26701552734375,22.417445776367188C17.67891552734375,22.59414577636719,17.04201552734375,22.483545776367187,16.54801552734375,22.118945776367188L12.00001552734375,18.751545776367188L7.45274552734375,22.118945776367188L7.45274552734375,22.11974577636719Z" fill="#000000" fill-opacity="1"/></g></g></svg>