<svg xmlns="http://www.w3.org/2000/svg" xmlns:xlink="http://www.w3.org/1999/xlink" fill="none"
  version="1.1" width="16" height="16" viewBox="0 0 16 16">
  <defs>
    <clipPath id="master_svg0_139_1940">
      <rect x="0" y="0" width="16" height="16" rx="0" />
    </clipPath>
  </defs>
  <g clip-path="url(#master_svg0_139_1940)">
    <g>
      <path
        d="M12.833343505859375,12.500032061767579L8.556013505859376,12.500032061767579L7.205013505859375,14.001132061767578C7.020313505859375,14.206632061767579,6.703993505859375,14.223332061767579,6.498643505859375,14.038532061767578C6.293293505859375,13.853732061767579,6.276733505859375,13.537432061767579,6.461673505859375,13.332132061767577L7.961673505859375,11.665502061767578C8.056483505859376,11.560152061767578,8.191573505859374,11.500002061767578,8.333343505859375,11.500002061767578L12.833343505859375,11.500002061767578C13.293543505859375,11.500002061767578,13.666643505859374,11.126902061767579,13.666643505859374,10.666662061767578L13.666643505859374,3.6666620617675783C13.666643505859374,3.206432061767578,13.293543505859375,2.833332061767578,12.833343505859375,2.833332061767578L3.166673505859375,2.833332061767578C2.706443505859375,2.833332061767578,2.333343505859375,3.206432061767578,2.333343505859375,3.6666620617675783L2.333343505859375,10.666662061767578C2.333343505859375,11.126902061767579,2.706443505859375,11.500002061767578,3.166673505859375,11.500002061767578L5.333343505859375,11.500002061767578C5.609483505859375,11.500002061767578,5.833343505859375,11.723852061767579,5.833343505859375,12.000032061767579C5.833343505859375,12.276132061767578,5.609483505859375,12.500032061767579,5.333343505859375,12.500032061767579L3.166673505859375,12.500032061767579C2.154176505859375,12.500032061767579,1.333343505859375,11.679162061767578,1.333343505859375,10.666662061767578L1.333343505859375,3.6666620617675783C1.333343505859375,2.654165061767578,2.154176505859375,1.8333320617675781,3.166673505859375,1.8333320617675781L12.833343505859375,1.8333320617675781C13.845843505859374,1.8333320617675781,14.666643505859374,2.654165061767578,14.666643505859374,3.6666620617675783L14.666643505859374,10.666662061767578C14.666643505859374,11.679162061767578,13.845843505859374,12.500032061767579,12.833343505859375,12.500032061767579ZM11.000013505859375,5.333332061767578C11.276153505859375,5.333332061767578,11.500043505859376,5.557192061767578,11.500043505859376,5.833332061767578C11.500043505859376,6.109472061767578,11.276153505859375,6.333332061767578,11.000013505859375,6.333332061767578L5.000013505859375,6.333332061767578C4.723863505859375,6.333332061767578,4.500013505859375,6.109472061767578,4.500013505859375,5.833332061767578C4.500013505859375,5.557192061767578,4.723863505859375,5.333332061767578,5.000013505859375,5.333332061767578L11.000013505859375,5.333332061767578ZM8.000013505859375,8.000002061767578C8.276153505859375,8.000002061767578,8.500013505859375,8.223852061767579,8.500013505859375,8.500002061767578C8.500013505859375,8.776142061767578,8.276153505859375,9.000002061767578,8.000013505859375,9.000002061767578L5.000013505859375,9.000002061767578C4.723863505859375,9.000002061767578,4.500013505859375,8.776142061767578,4.500013505859375,8.500002061767578C4.500013505859375,8.223852061767579,4.723863505859375,8.000002061767578,5.000013505859375,8.000002061767578L8.000013505859375,8.000002061767578Z"
        fill="#000000" fill-opacity="1" />
    </g>
  </g>
</svg>