<svg xmlns="http://www.w3.org/2000/svg" xmlns:xlink="http://www.w3.org/1999/xlink" fill="none" version="1.1" width="24" height="24" viewBox="0 0 24 24"><defs><clipPath id="master_svg0_132_5365"><rect x="0" y="0" width="24" height="24" rx="0"/></clipPath></defs><g clip-path="url(#master_svg0_132_5365)"><g><path d="M3.90147068359375,10.516495776367188L8.88522068359375,13.533745776367187C9.25135068359375,13.743045776367188,9.37305068359375,14.212845776367187,9.154540683593751,14.573545776367187C8.93602068359375,14.934245776367188,8.46321068359375,15.043845776367187,8.10823068359375,14.816245776367188L1.86147468359375,11.035505776367188C1.61961668359375,10.889305776367188,1.48047608359375,10.619565776367187,1.50154566359375,10.337735776367188C1.52261528359375,10.055915776367188,1.70031768359375,9.809865776367188,1.9612246835937501,9.701245776367188L21.46125068359375,1.5577504763671874C21.71595068359375,1.4516313763671875,22.00825068359375,1.4939092363671875,22.22245068359375,1.6678257763671875C22.43665068359375,1.8417427763671874,22.53805068359375,2.1192117763671874,22.48645068359375,2.3902507763671874L19.07025068359375,20.390245776367188C18.97145068359375,20.910645776367186,18.37905068359375,21.167445776367188,17.93175068359375,20.88374577636719L11.59875068359375,16.86824577636719C11.24871068359375,16.646645776367187,11.14462068359375,16.183245776367187,11.36622068359375,15.833245776367187C11.58785068359375,15.483245776367188,12.05125068359375,15.379145776367187,12.40125068359375,15.600745776367187L17.80275068359375,19.02524577636719L20.75245068359375,3.4799957763671876L3.90147068359375,10.516495776367188Z" fill="#3D3D3D" fill-opacity="1"/></g><g><path d="M9.75,14.8147462890625L9.75,20.9999962890625C9.75,21.414196289062502,9.41421,21.7499962890625,9,21.7499962890625C8.585786,21.7499962890625,8.25,21.414196289062502,8.25,20.9999962890625L8.25,14.4697462890625C8.2499856949,14.2505162890625,8.3458965,14.0422462890625,8.5125,13.899746289062499L17.6295,6.0937482890625C17.9443,5.8245088890625,18.4178,5.8614453890625,18.686999999999998,6.1762472890625C18.956200000000003,6.4910502890625,18.9193,6.9645062890625,18.6045,7.2337462890625L9.75,14.8139962890625L9.75,14.8147462890625Z" fill="#3D3D3D" fill-opacity="1"/></g></g></svg>