<?xml version="1.0" standalone="no"?><!DOCTYPE svg PUBLIC "-//W3C//DTD SVG 1.1//EN" "http://www.w3.org/Graphics/SVG/1.1/DTD/svg11.dtd"><svg t="1702276682487" class="icon" viewBox="0 0 1024 1024" version="1.1" xmlns="http://www.w3.org/2000/svg" p-id="6553" xmlns:xlink="http://www.w3.org/1999/xlink" width="64" height="64"><path d="M513.536 140.288c201.728 0 366.08 164.352 366.08 366.08s-164.352 366.08-366.08 366.08S147.456 708.608 147.456 506.88 311.808 140.288 513.536 140.288M513.536 81.92c-234.496 0-424.96 190.464-424.96 424.96 0 234.496 189.952 424.96 424.96 424.96 234.496 0 424.96-190.464 424.96-424.96C938.496 272.384 748.032 81.92 513.536 81.92L513.536 81.92z" p-id="6554"></path><path d="M499.2 600.576c-7.68 0-14.848-3.072-20.48-8.704L419.84 533.504c-11.264-11.264-11.264-30.208 0-41.472 11.264-11.264 30.208-11.264 41.472 0l58.368 58.368c11.264 11.264 11.264 30.208 0 41.472C514.56 598.016 506.88 600.576 499.2 600.576z" p-id="6555"></path><path d="M499.2 600.576c-7.68 0-14.848-3.072-20.48-8.704-11.264-11.264-11.264-30.208 0-41.472l117.248-117.248c11.264-11.264 30.208-11.264 41.472 0 11.264 11.264 11.264 30.208 0 41.472l-117.248 117.248C514.56 598.016 506.88 600.576 499.2 600.576z" p-id="6556"></path><path d="M602.624 735.232c-3.072 0-6.144-0.512-9.216-1.536l-80.384-26.112-80.384 26.112c-13.824 4.608-28.672-1.536-35.328-14.336l-38.4-75.264-75.264-38.4c-12.8-6.656-18.944-21.504-14.336-35.328l26.112-80.384-26.112-80.384c-4.608-13.824 1.536-28.672 14.336-35.328l75.264-38.4L397.824 261.12c6.656-12.8 21.504-18.944 35.328-14.336l80.384 26.112 80.384-26.112c13.824-4.608 28.672 1.536 35.328 14.336l38.4 75.264 75.264 38.4c12.8 6.656 18.944 21.504 14.336 35.328l-26.112 80.384 26.112 80.384c4.608 13.824-1.536 28.672-14.336 35.328l-75.264 38.4-38.4 75.264C623.616 729.6 613.376 735.232 602.624 735.232zM513.024 647.68c3.072 0 6.144 0.512 9.216 1.536l65.536 20.992 31.232-61.44c2.56-5.632 7.168-9.728 12.8-12.8l61.44-31.232-20.992-65.536c-2.048-5.632-2.048-12.288 0-17.92l20.992-65.536-61.44-31.232c-5.632-2.56-9.728-7.168-12.8-12.8l-31.232-61.44L522.24 331.264c-5.632 2.048-12.288 2.048-17.92 0l-65.536-20.992-31.232 61.44c-2.56 5.632-7.168 9.728-12.8 12.8l-61.44 31.232L354.304 481.28c2.048 5.632 2.048 12.288 0 17.92L332.8 564.736l61.44 31.232c5.632 2.56 9.728 7.168 12.8 12.8l31.232 61.44 65.536-20.992C506.88 648.192 509.952 647.68 513.024 647.68z" p-id="6557"></path><path d="M355.84 798.72c-16.384 0-29.184-13.312-29.184-29.184l0-44.032c0-16.384 13.312-29.184 29.184-29.184s29.184 13.312 29.184 29.184l0 44.032C385.024 785.408 372.224 798.72 355.84 798.72z" p-id="6558"></path><path d="M355.84 681.472" p-id="6559"></path><path d="M670.208 798.72c-16.384 0-29.184-13.312-29.184-29.184l0-44.032c0-16.384 13.312-29.184 29.184-29.184s29.184 13.312 29.184 29.184l0 44.032C699.392 785.408 686.592 798.72 670.208 798.72z" p-id="6560"></path></svg>