<svg xmlns="http://www.w3.org/2000/svg" xmlns:xlink="http://www.w3.org/1999/xlink" fill="none" version="1.1" width="24" height="24" viewBox="0 0 24 24"><defs><clipPath id="master_svg0_132_2407"><rect x="0" y="0" width="24" height="24" rx="0"/></clipPath></defs><g clip-path="url(#master_svg0_132_2407)"><g><path d="M12.9718671875,22.000003295898438C11.3158671875,22.000003295898438,9.9638671875,20.65200329589844,9.9638671875,18.99200329589844L11.5638671875,18.99200329589844C11.5638671875,19.76800329589844,12.1958671875,20.400003295898436,12.9718671875,20.400003295898436C13.747867187499999,20.400003295898436,14.3798671875,19.76800329589844,14.3798671875,18.99200329589844L15.9798671875,18.99200329589844C15.9758671875,20.65200329589844,14.6278671875,22.000003295898438,12.9718671875,22.000003295898438ZM12.9718671875,3.7560032958984375C12.5318671875,3.7560032958984375,12.1718671875,3.3960032958984376,12.1718671875,2.9560032958984372L12.1718671875,2.0440032958984373C12.1718671875,1.6040032958984374,12.5318671875,1.2440033853054375,12.9718671875,1.2440032958984375C13.4118671875,1.2440032064914375,13.7718671875,1.6040032958984374,13.7718671875,2.0440032958984373L13.7718671875,2.9600032958984377C13.7718671875,3.4000032958984376,13.4118671875,3.7560032958984375,12.9718671875,3.7560032958984375Z" fill="#231815" fill-opacity="1"/></g><g><path d="M19.215984374999998,18.359999389648436L6.727984375,18.359999389648436C5.267984375,18.359999389648436,4.083984375,17.171999389648438,4.083984375,15.715999389648438C4.083984375,14.415999389648437,5.027984375,13.331999389648438,6.267984375,13.111999389648437L6.267984375,9.343999389648438C6.267984375,5.6479993896484375,9.275984375,2.6399993896484375,12.971984375,2.6399993896484375C16.667984375,2.6399993896484375,19.675984375,5.6479993896484375,19.675984375,9.343999389648438L19.675984375,13.111999389648437C20.915984375,13.331999389648438,21.859984375,14.415999389648437,21.859984375,15.715999389648438C21.859984375,17.171999389648438,20.671984375,18.359999389648436,19.215984374999998,18.359999389648436ZM6.727984375,14.671999389648438C6.151984375,14.671999389648438,5.683984375,15.139999389648438,5.683984375,15.715999389648438C5.683984375,16.29199938964844,6.151984375,16.759999389648435,6.727984375,16.759999389648435L19.215984374999998,16.759999389648435C19.791984375,16.759999389648435,20.259984375,16.29199938964844,20.259984375,15.715999389648438C20.259984375,15.139999389648438,19.791984375,14.671999389648438,19.215984374999998,14.671999389648438L18.075984375,14.671999389648438L18.075984375,9.343999389648438C18.075984375,6.527999389648437,15.787984375,4.239999389648437,12.971984375,4.239999389648437C10.155984375,4.239999389648437,7.867984375,6.527999389648437,7.867984375,9.343999389648438L7.867984375,14.671999389648438L6.727984375,14.671999389648438Z" fill="#231815" fill-opacity="1"/></g></g></svg>