<?xml version="1.0" standalone="no"?><!DOCTYPE svg PUBLIC "-//W3C//DTD SVG 1.1//EN" "http://www.w3.org/Graphics/SVG/1.1/DTD/svg11.dtd"><svg t="1702263365158" class="icon" viewBox="0 0 1024 1024" version="1.1" xmlns="http://www.w3.org/2000/svg" p-id="4342" xmlns:xlink="http://www.w3.org/1999/xlink" width="64" height="64"><path d="M389.397333 340.309333m-49.066667 0a2.3 2.3 0 1 0 98.133333 0 2.3 2.3 0 1 0-98.133333 0Z" p-id="4343" fill="#3d3d3d"></path><path d="M217.664 340.330667m-49.045333 0a2.299 2.299 0 1 0 98.090667 0 2.299 2.299 0 1 0-98.090667 0Z" p-id="4344" fill="#3d3d3d"></path><path d="M561.066667 389.376c27.136 0 49.024-21.952 49.024-49.066667 0-27.072-21.866667-49.024-49.024-49.024-27.114667 0-49.045333 21.930667-49.045333 49.024C512.021333 367.424 533.952 389.376 561.066667 389.376z" p-id="4345" fill="#3d3d3d"></path><path d="M778.730667 340.309333C778.730667 152.661333 604.074667 0 389.397333 0 174.677333 0 0 152.661333 0 340.309333c0 104.661333 53.482667 201.024 147.178667 266.112l0 175.466667c0 8.042667 4.586667 15.488 11.861333 19.136 3.008 1.493333 6.314667 2.218667 9.578667 2.218667 4.544 0 9.066667-1.429333 12.842667-4.309333l161.493333-121.109333c17.024 1.877333 31.936 2.816 46.442667 2.816C604.074667 680.64 778.730667 527.957333 778.730667 340.309333zM339.605333 634.368c-5.482667-0.789333-11.093333 0.746667-15.509333 4.074667l-134.037333 100.544 0-144.042667c0-7.253333-3.648-13.952-9.728-17.962667-87.36-56.938667-137.472-143.232-137.472-236.693333 0-164.010667 155.434667-297.450667 346.538667-297.450667 191.018667 0 346.517333 133.461333 346.517333 297.493333s-155.456 297.429333-346.496 297.429333C374.336 637.781333 358.528 636.714667 339.605333 634.368z" p-id="4346" fill="#3d3d3d"></path><path d="M886.698667 301.696c-9.493333-7.061333-22.890667-5.056-29.952 4.437333-7.082667 9.493333-5.056 22.890667 4.437333 29.952 76.181333 56.64 119.957333 138.624 119.957333 225.002667 0 93.504-50.112 179.754667-137.450667 236.757333-6.058667 3.968-9.749333 10.666667-9.749333 17.92l0 143.957333-134.016-100.501333c-4.373333-3.285333-9.877333-4.757333-15.509333-4.074667-18.837333 2.325333-34.645333 3.413333-49.792 3.413333-96.490667 0-186.133333-33.258667-252.330667-93.717333-8.725333-8-22.314667-7.36-30.293333 1.344-7.978667 8.746667-7.338667 22.293333 1.386667 30.293333 74.112 67.712 174.037333 104.917333 281.237333 104.917333 14.592 0 29.504-0.874667 46.464-2.752l161.429333 121.066667C846.293333 1022.549333 850.858667 1024 855.381333 1024c3.285333 0 6.592-0.746667 9.578667-2.24 7.296-3.584 11.84-11.072 11.84-19.136l0-175.445333c93.738667-65.045333 147.2-161.429333 147.2-266.090667C1024 461.034667 973.952 366.464 886.698667 301.696z" p-id="4347" fill="#3d3d3d"></path></svg>