<svg
  xmlns="http://www.w3.org/2000/svg"
  xmlns:xlink="http://www.w3.org/1999/xlink"
  fill="none"
  version="1.1"
  width="16"
  height="16"
  viewBox="0 0 16 16"
>
  <defs>
    <clipPath id="master_svg0_2564_03976">
      <rect x="0" y="0" width="16" height="16" rx="0" />
    </clipPath>
  </defs>
  <g clip-path="url(#master_svg0_2564_03976)">
    <g>
      <path
        d="M12.4889,15.5102C11.2611,15.9262,9.2978,16,7.17338,16C3.08786,16,0,15.4591,0,14.1538C0,11.6745,2.13215,9.49169,5.19684,8.82462C3.41806,7.9309,2.4404,5.77326,2.85034,3.64606C3.25999,1.51913,4.94623,0,6.89748,0C8.82883,-0.000975726,10.504,1.488,10.934,3.58785C11.364,5.68771,10.4344,7.84004,8.69414,8.77415C9.17696,8.87631,9.64268,9.02462,10.083,9.21354C9.63522,9.66273,9.37983,10.3031,9.38057,10.9748C9.38057,13.2806,11.3676,14.6382,12.4889,15.5102ZM12.0529,9.23077C12.533,9.23077,12.9557,9.48308,13.2432,9.86769C13.5307,9.48369,13.9539,9.23077,14.4328,9.23077C15.2964,9.23077,16.0022,10.024,16.0022,11C16.0022,13.0025,14.0035,14.0523,13.3292,14.6862L13.2432,14.7692L13.1571,14.6862C12.4817,14.0517,10.4842,13.0025,10.4842,11C10.4842,10.0246,11.1899,9.23077,12.0535,9.23077L12.0529,9.23077Z"
        fill="#FF8200"
        fill-opacity="1"
      />
    </g>
  </g>
</svg>