<svg
  xmlns="http://www.w3.org/2000/svg"
  xmlns:xlink="http://www.w3.org/1999/xlink"
  fill="none"
  version="1.1"
  width="24"
  height="24"
  viewBox="0 0 24 24"
>
  <defs>
    <clipPath id="master_svg0_76_0423">
      <rect x="0" y="0" width="24" height="24" rx="0" />
    </clipPath>
  </defs>
  <g clip-path="url(#master_svg0_76_0423)">
    <g>
      <path
        d="M21.08526826171875,21.04016151123047C20.91566826171875,18.505861511230467,19.66316826171875,16.147861511230467,17.64916826171875,14.570661511230469L17.52806826171875,14.487061511230468L17.52696826171875,14.488661511230468C17.41246826171875,14.418661511230468,17.28186826171875,14.381161511230468,17.14746826171875,14.381161511230468C16.68566826171875,14.381161511230468,16.410168261718752,14.603861511230468,16.410168261718752,14.97676151123047C16.410168261718752,15.19396151123047,16.510568261718753,15.398061511230468,16.67916826171875,15.536561511230468L16.67726826171875,15.539761511230468L16.78416826171875,15.616361511230469C18.47326826171875,16.82386151123047,19.42416826171875,18.655061511230468,19.61036826171875,21.06026151123047L19.61236826171875,21.086461511230468C19.61066826171875,21.10676151123047,19.60966826171875,21.12706151123047,19.60966826171875,21.14776151123047C19.60966826171875,21.55416151123047,19.93916826171875,21.883661511230468,20.34556826171875,21.883661511230468C20.73836826171875,21.883661511230468,21.05926826171875,21.575961511230467,21.08036826171875,21.188361511230468L21.09496826171875,21.188361511230468L21.08526826171875,21.04016151123047ZM18.715168261718752,8.713971511230469C18.715168261718752,5.055201511230469,15.70276826171875,2.0783615112304688,11.99976826171875,2.0783615112304688C8.29674826171875,2.0783615112304688,5.2843182617187505,5.055201511230469,5.2843182617187505,8.713971511230469C5.2843182617187505,10.685311511230468,6.1559882617187505,12.524261511230469,7.68379826171875,13.791961511230468C4.941208261718749,15.25566151123047,3.12079826171875,18.04796151123047,2.91475367171875,21.130661511230468L2.90626341171875,21.25916151123047C2.90609550171875,21.261861511230467,2.90587967671875,21.26446151123047,2.90573573071875,21.26716151123047L2.90496826171875,21.27886151123047L2.90542387971875,21.27886151123047C2.90523201271875,21.28516151123047,2.90496826171875,21.29136151123047,2.90496826171875,21.29766151123047C2.90496826171875,21.64226151123047,3.18430626171875,21.921661511230468,3.52892926171875,21.921661511230468C3.87352726171875,21.921661511230468,4.15288826171875,21.64226151123047,4.15288826171875,21.29766151123047C4.15288826171875,21.29136151123047,4.15259826171875,21.28516151123047,4.15243826171875,21.27886151123047L4.16540826171875,21.27886151123047L4.17519826171875,21.150661511230467C4.40131826171875,18.22106151123047,6.25810826171875,15.65576151123047,8.91219826171875,14.59866151123047C9.70459826171875,14.96676151123047,10.91423826171875,15.350061511230468,11.99926826171875,15.350061511230468C13.00446826171875,15.350061511230468,13.98066826171875,15.128561511230469,14.91016826171875,14.686661511230469L15.59096826171875,14.291361511230468L16.14696826171875,13.926561511230469C17.77886826171875,12.656161511230469,18.715168261718752,10.755921511230468,18.715168261718752,8.713971511230469ZM11.99974826171875,14.01406151123047C9.040828261718751,14.01406151123047,6.63374826171875,11.636001511230468,6.63374826171875,8.713441511230469C6.63374826171875,5.791401511230468,9.04079826171875,3.413941511230469,11.99974826171875,3.413941511230469C14.95896826171875,3.413941511230469,17.36626826171875,5.791401511230468,17.36626826171875,8.713441511230469C17.36626826171875,11.636001511230468,14.95896826171875,14.01406151123047,11.99974826171875,14.01406151123047Z"
        fill="#9e9e9e"
        fill-opacity="1"
      />
    </g>
  </g>
</svg>