<svg
xmlns="http://www.w3.org/2000/svg"
xmlns:xlink="http://www.w3.org/1999/xlink"
fill="none"
version="1.1"
width="24"
height="24"
viewBox="0 0 24 24"
>
<defs>
  <clipPath id="master_svg0_3_3353">
    <rect x="0" y="0" width="24" height="24" rx="0" />
  </clipPath>
</defs>
<g clip-path="url(#master_svg0_3_3353)">
  <g>
    <path
      d="M7.609150390625,8.253119430541993C7.775950390625,8.253119430541993,7.921870390625,8.190599430541992,8.047150390625,8.065439430541993L11.363710390625,4.748759430541992L11.363710390625,15.136519430541993C11.363710390625,15.491019430541993,11.634910390625,15.762519430541992,11.989510390625,15.762519430541992C12.344110390625,15.762519430541992,12.615310390625,15.491019430541993,12.615310390625,15.136519430541993L12.615310390625,4.748759430541992L15.931870390625,8.065439430541993C16.057150390625,8.190599430541992,16.224070390625002,8.253119430541993,16.369870390625,8.253119430541993C16.516030390624998,8.253119430541993,16.682830390625,8.190599430541992,16.807990390625,8.065439430541993C17.058350390625,7.815119430541992,17.058350390625,7.418759430541992,16.807990390625,7.1893194305419925L12.427390390625,2.808960430541992C12.406630390625,2.788080430541992,12.364870390625,2.746440430541992,12.323230390625,2.725560430541992Q12.302470390625,2.725560430541992,12.281590390625,2.704680430541992C12.260590390625,2.6839204305419924,12.239710390625,2.6839204305419924,12.218830390625001,2.663040330541992C12.197950390625,2.663040330541992,12.177190390625,2.6421604305419923,12.156310390625,2.6421604305419923C12.135310390625001,2.6421604305419923,12.114670390625001,2.621280530541992,12.093790390625,2.621280530541992C12.011660390625,2.600399140541992,11.925600390625,2.600399140541992,11.843470390625,2.621280530541992C11.822590390624999,2.621280530541992,11.801830390625,2.6421604305419923,11.780950390625,2.6421604305419923C11.760070390625,2.6421604305419923,11.739190390625,2.663040330541992,11.718310390625,2.663040330541992C11.697430390625,2.663040330541992,11.676670390624999,2.6839202305419922,11.655790390625,2.704680430541992Q11.634910390625,2.704680430541992,11.614150390625,2.725560430541992C11.572390390625,2.746440430541992,11.551630390625,2.767320430541992,11.509750390625001,2.808960430541992L7.129390390625,7.1893194305419925C6.879070490625,7.439639430541992,6.879070490625,7.835999430541992,7.129390390625,8.065439430541993C7.296190390625,8.190599430541992,7.442230390625,8.253119430541993,7.609150390625,8.253119430541993Z"
      fill="#333333"
      fill-opacity="1"
    />
  </g>
  <g>
    <path
      d="M21.79325859375,13.050722122192383C21.43865859375,13.050722122192383,21.16745859375,13.321923122192382,21.16745859375,13.676522122192383L21.16745859375,18.515882122192384C21.16745859375,19.412882122192382,20.43735859375,20.142962122192383,19.54045859375,20.142962122192383L4.438498593749999,20.142962122192383C3.54161859375,20.142962122192383,2.81153859375,19.412882122192382,2.81153859375,18.515882122192384L2.81153859375,13.676522122192383C2.81153859375,13.321923122192382,2.54033859375,13.050722122192383,2.18573859375,13.050722122192383C1.83113859375,13.050722122192383,1.56005859375,13.321923122192382,1.56005859375,13.676522122192383L1.56005859375,18.515882122192384C1.56005859375,20.101082122192384,2.85329859375,21.39444212219238,4.43861859375,21.39444212219238L19.56135859375,21.39444212219238C21.14685859375,21.39444212219238,22.44005859375,20.101082122192384,22.44005859375,18.515882122192384L22.44005859375,13.676522122192383C22.41905859375,13.321923122192382,22.14785859375,13.050722122192383,21.79325859375,13.050722122192383Z"
      fill="#333333"
      fill-opacity="1"
    />
  </g>
</g>
</svg>