<svg
  xmlns="http://www.w3.org/2000/svg"
  xmlns:xlink="http://www.w3.org/1999/xlink"
  fill="none"
  version="1.1"
  width="24"
  height="24"
  viewBox="0 0 24 24"
>
  <defs>
    <clipPath id="master_svg0_85_4893">
      <rect x="0" y="0" width="24" height="24" rx="0" />
    </clipPath>
  </defs>
  <g clip-path="url(#master_svg0_85_4893)">
    <g>
      <path
        d="M6.75,9.75L11.25,9.75C11.66414,9.75,12,9.41414,12,9C12,8.585859,11.66414,8.25,11.25,8.25L6.75,8.25C6.335859,8.25,6,8.585859,6,9C6,9.41414,6.335859,9.75,6.75,9.75ZM6.75,13.5L15,13.5C15.41461,13.5,15.75,13.16461,15.75,12.75C15.75,12.33539,15.41461,12,15,12L6.75,12C6.335859,12,6,12.33539,6,12.75C6,13.16461,6.335859,13.5,6.75,13.5ZM11.25,15.75L6.75,15.75C6.335859,15.75,6,16.08539,6,16.5C6,16.91461,6.335859,17.25,6.75,17.25L11.25,17.25C11.66414,17.25,12,16.91461,12,16.5C12,16.08539,11.66414,15.75,11.25,15.75ZM22.0308,15.120940000000001L19.3791,12.46922C19.232599999999998,12.32273,19.040599999999998,12.24961,18.8487,12.24961C18.6567,12.24961,18.4648,12.32273,18.3183,12.46922L12.96961,17.81812C12.82898,17.958750000000002,12.75,18.14953,12.75,18.3485L12.75,21C12.75,21.414099999999998,13.08586,21.75,13.5,21.75L16.151699999999998,21.75C16.3507,21.75,16.5415,21.671,16.6821,21.5304L22.0308,16.18172C22.3235,15.88875,22.3235,15.41391,22.0308,15.120940000000001ZM15.84094,20.25L14.25,20.25L14.25,18.659100000000002L18.8487,14.06016L20.4396,15.65109L15.84094,20.25Z"
        fill="#333333"
        fill-opacity="1"
      />
    </g>
    <g>
      <path
        d="M10.5,20.25L4.5,20.25L4.5,3.75L13.4967,3.75L13.4993,6.75211C13.5007,7.57781,14.1738,8.25,14.9993,8.25L18,8.25L18,10.125C18,10.53914,18.335900000000002,10.875,18.75,10.875C19.1641,10.875,19.5,10.53914,19.5,10.125L19.5,6.44227C19.5,6.24117,19.4191,6.04852,19.2759,5.90742L15.7755,2.465156C15.6352,2.3272659,15.4464,2.25,15.2498,2.25L3.75,2.25C3.335859,2.25,3,2.585859,3,3L3,21C3,21.4141,3.335859,21.75,3.75,21.75L10.5,21.75C10.91414,21.75,11.25,21.4141,11.25,21C11.25,20.5859,10.91414,20.25,10.5,20.25ZM17.9934,6.75L14.9993,6.75L14.997,3.8032L17.9934,6.75Z"
        fill="#333333"
        fill-opacity="1"
      />
    </g>
  </g>
</svg>