<svg
  xmlns="http://www.w3.org/2000/svg"
  xmlns:xlink="http://www.w3.org/1999/xlink"
  fill="none"
  version="1.1"
  width="16"
  height="16"
  viewBox="0 0 16 16"
>
  <defs>
    <clipPath id="master_svg0_3_1871">
      <rect x="0" y="0" width="16" height="16" rx="0" />
    </clipPath>
  </defs>
  <g clip-path="url(#master_svg0_3_1871)">
    <g>
      <path
        d="M14.898089599609374,14.191132153320313L12.513989599609374,11.640532153320313C13.481589599609375,10.476732153320313,14.011089599609376,9.025362153320312,14.011089599609376,7.498742153320313C14.011089599609376,3.9160121533203127,11.094889599609376,0.9998321533203125,7.509499599609375,0.9998321533203125C3.926769599609375,0.9998321533203125,1.010589599609375,3.9160121533203127,1.010589599609375,7.498742153320313C1.010589599609375,11.081432153320312,3.926769599609375,13.997632153320312,7.509499599609375,13.997632153320312C8.447509599609376,13.997632153320312,9.353269599609375,13.801432153320313,10.199909599609375,13.414432153320313C10.452549599609375,13.298832153320312,10.562749599609376,13.003232153320312,10.447179599609376,12.753232153320312C10.331599599609374,12.500632153320312,10.035959599609376,12.390432153320312,9.785999599609376,12.505932153320312C9.068379599609376,12.831132153320313,8.302379599609374,12.997832153320312,7.509499599609375,12.997832153320312C4.477749599609375,12.997832153320312,2.010421599609375,10.530492153320312,2.010421599609375,7.498742153320313C2.010421599609375,4.466992153320312,4.477749599609375,1.9996631533203124,7.509499599609375,1.9996631533203124C10.541249599609374,1.9996631533203124,13.008589599609374,4.466992153320312,13.008589599609374,7.498742153320313C13.008589599609374,8.925922153320313,12.462989599609376,10.277842153320313,11.476589599609374,11.307232153320312C11.285789599609375,11.506132153320312,11.291089599609375,11.823332153320312,11.489989599609375,12.014132153320313C11.506089599609375,12.027532153320312,11.524989599609375,12.032932153320312,11.541089599609375,12.046332153320312C11.554489599609376,12.065132153320313,11.562589599609375,12.089332153320312,11.578689599609374,12.108132153320312L14.164289599609376,14.873832153320313C14.261089599609376,14.978632153320312,14.395389599609375,15.032432153320313,14.529789599609375,15.032432153320313C14.653489599609374,15.032432153320313,14.774389599609375,14.986732153320313,14.871189599609375,14.898032153320312C15.075389599609375,14.709932153320313,15.086189599609375,14.392732153320312,14.898089599609374,14.191132153320313Z"
        fill="#3D3D3D"
        fill-opacity="1"
      />
    </g>
  </g>
</svg>