<svg
  xmlns="http://www.w3.org/2000/svg"
  xmlns:xlink="http://www.w3.org/1999/xlink"
  fill="none"
  version="1.1"
  width="24"
  height="24"
  viewBox="0 0 24 24"
>
  <defs>
    <clipPath id="master_svg0_76_0427">
      <rect x="0" y="0" width="24" height="24" rx="0" />
    </clipPath>
  </defs>
  <g clip-path="url(#master_svg0_76_0427)">
    <g>
      <path
        d="M4.32546810546875,18.000027966308593L4.32546810546875,5.999997966308594C4.32546810546875,5.096727966308594,5.05855810546875,4.363637966308594,5.96182810546875,4.363637966308594L13.05273810546875,4.363637966308594L13.05273810546875,3.2727279663085938L5.41637810546875,3.2727279663085938C4.21092210546875,3.2727279663085938,3.23455810546875,4.249091966308594,3.23455810546875,5.454547966308594L3.23455810546875,18.545427966308594C3.23455810546875,19.750927966308595,4.21092110546875,20.727227966308593,5.41637810546875,20.727227966308593L13.05273810546875,20.727227966308593L13.05273810546875,19.636327966308595L5.96182810546875,19.636327966308595C5.05746810546875,19.636327966308595,4.32546810546875,18.90322796630859,4.32546810546875,18.000027966308593ZM21.65895810546875,11.613817966308593L17.80145810546875,7.756367966308594C17.58875810546875,7.5436379663085935,17.24295810546875,7.5436379663085935,17.03015810546875,7.756367966308594C16.817458105468752,7.969087966308594,16.817458105468752,8.314907966308594,17.03015810546875,8.527637966308593L19.95605810546875,11.453457966308594L9.23455810546875,11.453457966308594C8.93346810546875,11.453457966308594,8.68909810546875,11.697817966308595,8.68909810546875,11.998907966308593C8.68909810546875,12.299997966308593,8.93346810546875,12.544367966308593,9.23455810546875,12.544367966308593L19.95605810546875,12.544367966308593L17.03015810546875,15.470227966308594C16.817458105468752,15.682927966308593,16.817458105468752,16.028727966308594,17.03015810546875,16.241427966308592C17.24295810546875,16.454227966308594,17.58875810546875,16.454227966308594,17.80145810546875,16.241427966308592L21.65895810546875,12.383997966308593C21.87165810546875,12.172367966308594,21.87165810546875,11.827637966308593,21.65895810546875,11.613817966308593Z"
        fill="#9e9e9e"
        fill-opacity="1"
      />
    </g>
  </g>
</svg>