<svg
  xmlns="http://www.w3.org/2000/svg"
  xmlns:xlink="http://www.w3.org/1999/xlink"
  fill="none"
  version="1.1"
  width="16"
  height="16"
  viewBox="0 0 16 16"
>
  <defs>
    <clipPath id="master_svg0_3_6969">
      <rect x="0" y="0" width="16" height="16" rx="0" />
    </clipPath>
  </defs>
  <g clip-path="url(#master_svg0_3_6969)">
    <g>
      <path
        d="M14.991957177734376,8.9599667578125C14.111957177734375,8.1279667578125,12.735957177734376,8.087966757812499,11.759957177734375,8.7999667578125C11.647957177734375,8.7199667578125,11.527957177734375,8.6399667578125,11.399957177734375,8.583966757812501C11.375957177734374,8.551966757812501,11.351957177734375,8.5279667578125,11.319957177734375,8.4959667578125C10.879957177734376,8.119966757812499,10.407957177734374,7.7999667578125,9.920007177734375,7.5359667578125C9.832007177734376,7.4879667578125,9.736007177734376,7.4559667578125,9.648007177734375,7.4319667578125C10.431957177734375,6.5919667578125,10.863957177734376,5.6559667578125,10.911957177734376,4.6959667578125C10.959957177734376,3.7199667578125,10.591957177734376,2.7679667578125,9.856007177734375,1.9599667578125C9.192007177734375,1.2239697578125,8.208007177734375,0.7679701578125,7.160007177734375,0.7119702078125C6.104007177734375,0.6559702578125,5.072007177734375,1.0079697578125,4.328007177734375,1.6799707578125C3.440007177734375,2.4799667578125,3.008007177734375,3.4959667578125,3.072007177734375,4.6159667578125C3.128007177734375,5.5359667578125,3.520007177734375,6.4879667578125,4.224007177734375,7.4079667578125C1.904007177734375,8.5599667578125,0.576003177734375,10.4799667578125,0.280002877734375,13.1279767578125C0.208002877734375,13.7919767578125,0.32800297773437503,14.3199767578125,0.656003177734375,14.6799767578125C0.968003177734375,15.0319767578125,1.448007177734375,15.2159767578125,2.072007177734375,15.2159767578125L3.408007177734375,15.2159767578125C4.648007177734375,15.2159767578125,5.912007177734375,15.2239767578125,7.176007177734375,15.2239767578125C8.592007177734375,15.2239767578125,10.016007177734375,15.2159767578125,11.423957177734374,15.2079767578125C11.455957177734374,15.2079767578125,11.487957177734375,15.2079767578125,11.511957177734375,15.1999767578125C11.591957177734376,15.2079767578125,11.663957177734375,15.2159767578125,11.743957177734375,15.2159767578125C12.167957177734374,15.2159767578125,12.559957177734375,15.0559767578125,12.855957177734375,14.7599767578125L15.039957177734374,12.5759767578125C15.519957177734375,12.0959767578125,15.783957177734376,11.4399767578125,15.775957177734375,10.7599767578125C15.775957177734375,10.0719667578125,15.487957177734375,9.4159667578125,14.991957177734376,8.9599667578125ZM3.416007177734375,14.2559767578125L2.080007177734375,14.2559767578125C1.736007177734375,14.2559767578125,1.504007177734375,14.1839767578125,1.376007177734375,14.0479767578125C1.208003177734375,13.8559767578125,1.208003177734375,13.5039767578125,1.240003177734375,13.2399767578125C1.520007177734375,10.7199767578125,2.816007177734375,9.0159667578125,5.184007177734375,8.0399667578125C5.328007177734375,7.9839667578125,5.432007177734375,7.8559667578125,5.472007177734375,7.7039667578125C5.504007177734375,7.5519667578125,5.464007177734375,7.3919667578125,5.360007177734375,7.2799667578125C3.736007177734375,5.4799667578125,3.592007177734375,3.6559667578125,4.984007177734375,2.3999667578125C5.536007177734375,1.8959667578125,6.312007177734375,1.6319707578125,7.120007177734375,1.6799707578125C7.920007177734375,1.7199667578125,8.656007177734375,2.0559667578125,9.152007177734376,2.6079667578125C9.720007177734376,3.2319667578125,10.000007177734375,3.9359667578125,9.960007177734376,4.6559667578125C9.920007177734375,5.5039667578125,9.456007177734374,6.3599667578125,8.608007177734375,7.1199667578125C8.480007177734375,7.2399667578125,8.424007177734374,7.4159667578125,8.464007177734375,7.5919667578125C8.600007177734375,8.1439667578125,9.056007177734376,8.2639667578125,9.304007177734375,8.3359667578125C9.368007177734375,8.3519667578125,9.440007177734374,8.375966757812499,9.472007177734374,8.3919667578125L9.520007177734374,8.4159667578125C9.160007177734375,8.519966757812501,8.824007177734375,8.7039667578125,8.536007177734374,8.9759667578125C8.040007177734374,9.4399667578125,7.752007177734375,10.0959667578125,7.736007177734375,10.7679767578125C7.728007177734375,11.4479767578125,7.992007177734375,12.1039767578125,8.472007177734374,12.5839767578125L10.152007177734376,14.2639767578125C7.896007177734375,14.2639767578125,5.624007177734375,14.2639767578125,3.416007177734375,14.2559767578125ZM14.375957177734374,11.8959767578125L12.191957177734375,14.0799767578125C12.079957177734375,14.1919767578125,11.919957177734375,14.2559767578125,11.759957177734375,14.2559767578125C11.591957177734376,14.2559767578125,11.439957177734374,14.1919767578125,11.327957177734374,14.0799767578125L9.144007177734375,11.8959767578125C8.848007177734376,11.5999767578125,8.688007177734375,11.1919767578125,8.688007177734375,10.7759767578125C8.696007177734375,10.3599667578125,8.872007177734375,9.9519667578125,9.184007177734374,9.6639667578125C9.472007177734374,9.3919667578125,9.840007177734375,9.2639667578125,10.216007177734374,9.2639667578125C10.639957177734376,9.2639667578125,11.071957177734374,9.4319667578125,11.399957177734375,9.7599667578125L11.415957177734375,9.7759667578125C11.599957177734375,9.9599667578125,11.903957177734375,9.9599667578125,12.095957177734375,9.7759667578125L12.111957177734375,9.7599667578125C12.727957177734375,9.1359667578125,13.719957177734376,9.0959667578125,14.327957177734374,9.6639667578125L14.335957177734375,9.6719667578125C14.639957177734376,9.9519667578125,14.815957177734376,10.3519667578125,14.823957177734375,10.7759767578125C14.839957177734375,11.1919767578125,14.671957177734376,11.5999767578125,14.375957177734374,11.8959767578125Z"
        fill="#333333"
        fill-opacity="1"
      />
    </g>
  </g>
</svg>