<svg
  xmlns="http://www.w3.org/2000/svg"
  xmlns:xlink="http://www.w3.org/1999/xlink"
  fill="none"
  version="1.1"
  width="16"
  height="16"
  viewBox="0 0 16 16"
>
  <defs>
    <clipPath id="master_svg0_3_4379">
      <rect x="0" y="0" width="16" height="16" rx="0" />
    </clipPath>
  </defs>
  <g clip-path="url(#master_svg0_3_4379)">
    <g>
      <path
        d="M14.0473705078125,9.341666494140625L14.0473705078125,13.023556494140625C14.0473705078125,13.468256494140626,13.6592705078125,13.828656494140626,13.1804705078125,13.828656494140626L2.7240005078125,13.828656494140626C2.2451505078125003,13.828656494140626,1.8570355078125,13.468256494140626,1.8570355078125,13.023556494140625L1.8570355078125,3.312136494140625C1.8570355078125,2.867416494140625,2.2451505078125003,2.5069514941406252,2.7240005078125,2.5069514941406252L4.7175005078125,2.5069514941406252C5.4508905078125,2.5069514941406252,5.4508905078125,1.666656494140625,4.7175005078125,1.666656494140625L2.7240005078125,1.666656494140625C1.7486645078125,1.666656555930025,0.9522705078125,2.4039624941406252,0.9522705078125,3.312136494140625L0.9522705078125,13.021156494140625C0.9522705078125,13.929356494140626,1.7461445078125,14.666656494140625,2.7240005078125,14.666656494140625L13.1779705078125,14.666656494140625C14.1557705078125,14.666656494140625,14.9496705078125,13.929356494140626,14.9496705078125,13.021156494140625L14.9496705078125,9.341666494140625C14.9521705078125,8.782246494140626,14.0473705078125,8.782246494140626,14.0473705078125,9.341666494140625ZM6.7059705078125,10.685206494140624L6.7059705078125,5.671516494140625C6.7059705078125,5.2267964941406255,7.0940805078125,4.866336494140625,7.5729305078125,4.866336494140625L13.5685705078125,4.866336494140625L11.8245705078125,6.486066494140625C11.6808705078125,6.619486494140625,11.6808705078125,6.839506494140625,11.8245705078125,6.972926494140625C11.9681705078125,7.106336494140625,12.2051705078125,7.106336494140625,12.3487705078125,6.972926494140625L14.8034705078125,4.693126494140625C14.8337705078125,4.669716494140625,14.8563705078125,4.643966494140625,14.8765705078125,4.615886494140625C14.9345705078125,4.543326494140625,14.9597705078125,4.456716494140625,14.9496705078125,4.370116494140625C14.9622705078125,4.269466494140625,14.9294705078125,4.1641364941406245,14.8463705078125,4.086896494140625L14.8261705078125,4.068166494140625L14.8185705078125,4.061146494140624L12.3487705078125,1.767304494140625C12.2051705078125,1.633887094140625,11.9682705078125,1.633887094140625,11.8245705078125,1.767304494140625C11.7338705078125,1.851568494140625,11.7010705078125,1.968600494140625,11.7237705078125,2.076270494140625C11.7363705078125,2.141809494140625,11.7716705078125,2.205007494140625,11.8245705078125,2.256501494140625L13.7298705078125,4.026036494140625L7.5729305078125,4.026036494140625C6.5950805078125,4.026036494140625,5.8012005078125,4.763346494140626,5.8012005078125,5.671516494140625L5.8012005078125,10.685206494140624C5.8012005078125,11.242276494140626,6.7059705078125,11.242276494140626,6.7059705078125,10.685206494140624Z"
        fill="#3D3D3D"
        fill-opacity="1"
      />
    </g>
  </g>
</svg>