<svg
  xmlns="http://www.w3.org/2000/svg"
  xmlns:xlink="http://www.w3.org/1999/xlink"
  fill="none"
  version="1.1"
  width="16"
  height="16"
  viewBox="0 0 16 16"
>
  <defs>
    <clipPath id="master_svg0_3_4377">
      <rect x="0" y="0" width="16" height="16" rx="0" />
    </clipPath>
  </defs>
  <g clip-path="url(#master_svg0_3_4377)">
    <g>
      <path
        d="M9.7274666796875,7.263036337890625C9.7274666796875,7.699406337890625,10.0827266796875,8.054416337890625,10.5191066796875,8.054416337890625C10.9559266796875,8.054416337890625,11.3111966796875,7.699406337890625,11.3111966796875,7.263036337890625C11.3111966796875,6.826656337890625,10.9559266796875,6.471406337890625,10.5191066796875,6.471406337890625C10.0827266796875,6.471426337890625,9.7274666796875,6.826676337890625,9.7274666796875,7.263036337890625ZM14.5507966796875,3.304036337890625C14.5507966796875,2.669074337890625,14.0342966796875,2.152496576309625,13.3987966796875,2.152496576309625L2.6010866796875,2.152496337890625C1.9661216796874998,2.152496337890625,1.4490966796875,2.669058337890625,1.4490966796875,3.304036337890625L1.4490966796875,11.222726337890625C1.4490966796875,11.857686337890625,1.9661056796875,12.374196337890625,2.6010866796875,12.374196337890625L6.5255866796875,12.374196337890625L7.9997066796875,13.847496337890625L9.4733866796875,12.374196337890625L13.3987966796875,12.374196337890625C14.0342966796875,12.374196337890625,14.5507966796875,11.857696337890625,14.5507966796875,11.222726337890625L14.5507966796875,9.932726337890625L14.5493966796875,9.912686337890625L14.5507966796875,3.304036337890625ZM13.6868966796875,10.862816337890624C13.6868966796875,11.220396337890625,13.3969966796875,11.510396337890626,13.0393966796875,11.510396337890626L9.0538166796875,11.510386337890624L7.9997066796875,12.564896337890625L6.9461066796875,11.510386337890624L2.9609966796875,11.510386337890624C2.6034166796875002,11.510386337890624,2.3129586796875,11.220396337890625,2.3129586796875,10.862816337890624L2.3129586796875,3.663956337890625C2.3129586796875,3.306366337890625,2.6034166796875002,3.015687337890625,2.9609966796875,3.015687337890625L13.0393966796875,3.015687337890625C13.3969966796875,3.015687337890625,13.6868966796875,3.306366337890625,13.6868966796875,3.663956337890625L13.6868966796875,9.860506337890625L13.6868966796875,10.425526337890625L13.6868966796875,10.862816337890624L13.6868966796875,10.862816337890624ZM7.2081066796875,7.263036337890625C7.2081066796875,7.699406337890625,7.5633466796875,8.054416337890625,7.9997066796875,8.054416337890625C8.4361066796875,8.054416337890625,8.7913366796875,7.699406337890625,8.7913366796875,7.263036337890625C8.7913366796875,6.826656337890625,8.4361066796875,6.471406337890625,7.9997066796875,6.471406337890625C7.5633466796875,6.471426337890625,7.2081066796875,6.826676337890625,7.2081066796875,7.263036337890625ZM4.688756679687501,7.263036337890625C4.688756679687501,7.699406337890625,5.0440066796875005,8.054416337890625,5.4803766796875,8.054416337890625C5.9167366796875,8.054416337890625,6.2719866796875,7.699406337890625,6.2719866796875,7.263036337890625C6.2719866796875,6.826656337890625,5.9167366796875,6.471406337890625,5.4803766796875,6.471406337890625C5.0439866796874995,6.471426337890625,4.688756679687501,6.826676337890625,4.688756679687501,7.263036337890625Z"
        fill="#3D3D3D"
        fill-opacity="1"
      />
    </g>
  </g>
</svg>