<svg
  xmlns="http://www.w3.org/2000/svg"
  xmlns:xlink="http://www.w3.org/1999/xlink"
  fill="none"
  version="1.1"
  width="16"
  height="16"
  viewBox="0 0 16 16"
>
  <defs>
    <clipPath id="master_svg0_3_4375">
      <rect x="0" y="0" width="16" height="16" rx="0" />
    </clipPath>
  </defs>
  <g clip-path="url(#master_svg0_3_4375)">
    <g>
      <path
        d="M13.395,5.39051173828125L9.257,5.39051173828125C9.4535,4.69901173828125,9.553,4.08451173828125,9.553,3.54351173828125C9.553,2.31601173828125,8.431000000000001,1.14050873828125,7.357,1.29650853828125C6.41,1.43400873828125,5.958,2.23250873828125,5.958,3.25801173828125L5.958,4.18451173828125C5.958,5.37301173828125,5.0485,6.38651173828125,3.892,6.49801173828125L2.0525,6.49501173828125C1.47122,6.49501173828125,1,6.96623173828125,1,7.54751173828125L1,13.62503173828125C1,14.20653173828125,1.471,14.67753173828125,2.0525,14.67753173828125L12.243,14.67753173828125C13.0142,14.67753173828125,13.6763,14.12913173828125,13.82,13.37153173828125L14.972,7.29401173828125C15.1591,6.30548173828125,14.4011,5.39051173828125,13.395,5.39051173828125ZM2,13.62503173828125L2,7.54751173828125C2,7.51851173828125,2.0235000000000003,7.49501173828125,2.0525,7.49501173828125L3.25,7.49501173828125L3.25,13.67753173828125L2.0525,13.67753173828125C2.0235000000000003,13.67753173828125,2,13.65403173828125,2,13.62503173828125ZM13.9895,7.10801173828125L12.8375,13.18553173828125C12.7833,13.47093173828125,12.5337,13.67753173828125,12.243,13.67753173828125L4.25,13.67753173828125L4.25,7.45101173828125C5.81885,7.15151173828125,6.9547,5.78118173828125,6.958,4.184011738281249L6.958,3.25801173828125C6.958,2.67101173828125,7.1465,2.33751173828125,7.5005,2.2865117382812503C7.923,2.2250087382812502,8.553,2.88551173828125,8.553,3.54401173828125C8.553,4.12701173828125,8.404499999999999,4.856511738281251,8.102,5.72701173828125C7.98918,6.05194173828125,8.23053,6.39112173828125,8.5745,6.39101173828125L13.395,6.39101173828125C13.774,6.39103173828125,14.0597,6.73555173828125,13.9895,7.10801173828125Z"
        fill="#3D3D3D"
        fill-opacity="1"
      />
    </g>
  </g>
</svg>