<svg
  xmlns="http://www.w3.org/2000/svg"
  xmlns:xlink="http://www.w3.org/1999/xlink"
  fill="none"
  version="1.1"
  width="16"
  height="16"
  viewBox="0 0 16 16"
>
  <defs>
    <clipPath id="master_svg0_3_4381">
      <rect x="0" y="0" width="16" height="16" rx="0" />
    </clipPath>
  </defs>
  <g clip-path="url(#master_svg0_3_4381)">
    <g>
      <path
        d="M5.0963,13.8222C4.507070000000001,14.1709,3.73654,13.9905,3.37866,13.4229C3.209,13.1534,3.15627,12.8315,3.23165,12.5256L3.99431,9.42811C4.01282,9.35466,3.98748,9.27746,3.92834,9.22712L1.43193,7.15548C0.9133976,6.72549,0.8535470000000001,5.9735,1.296828,5.47218C1.509872,5.2306,1.815448,5.08011,2.1455900000000003,5.05418L5.42181,4.80002C5.49321,4.79436,5.55708,4.74952,5.58631,4.68136L6.8486,1.741239C7.11163,1.128749,7.84314,0.836254,8.48137,1.0934161C8.78576,1.2166109999999999,9.02659,1.449505,9.15128,1.741239L10.41357,4.68119C10.4428,4.74952,10.50668,4.79452,10.57808,4.80002L13.8546,5.05435C14.5417,5.10768,15.0504,5.68651,14.996,6.34366C14.9704,6.65727,14.8168,6.94884,14.5681,7.15582L12.0717,9.22745C12.0136,9.27562,11.9874,9.35361,12.0057,9.42828L12.7684,12.5257C12.9263,13.1666,12.5164,13.8122,11.8474,13.9667C11.5252,14.0412,11.1851,13.9892,10.90358,13.8224L8.098469999999999,12.1624C8.03823,12.1264,7.96166,12.1264,7.90142,12.1624L5.09613,13.8224L5.0963,13.8222ZM8.65288,11.3129L11.458,12.9729C11.501,12.9982,11.5518,13.0061,11.5999,12.9949C11.7051,12.9706,11.7732,12.8632,11.7464,12.7539L10.98373,9.65644C10.87632,9.2222,11.0296,8.76697,11.382,8.473130000000001L13.8784,6.40166C13.9192,6.36783,13.9449,6.31866,13.9495,6.265C13.9588,6.1535,13.8758,6.05917,13.7694,6.051L10.49285,5.79651C10.02467,5.75908,9.61834,5.47417,9.44179,5.05952L8.179490000000001,2.11957C8.15976,2.07233,8.12119,2.03446,8.07222,2.01423C7.97544,1.975235,7.86344,2.02007,7.82074,2.11957L6.55827,5.05952C6.38172,5.47417,5.97539,5.75908,5.50721,5.79651L2.23081,6.051C2.17976,6.05523,2.13262,6.07876,2.09991,6.11633C2.0257300000000003,6.20166,2.03538,6.32751,2.12179,6.40166L4.6182,8.4733C4.97068,8.767140000000001,5.12391,9.22237,5.0165,9.65661L4.25384,12.7539C4.2408,12.8065,4.24972,12.8618,4.27869,12.9082C4.33592,12.9987,4.4523,13.0259,4.54225,12.9727L7.34753,11.3129C7.74712,11.0761,8.25329,11.0761,8.65288,11.3129Z"
        fill="#3D3D3D"
        fill-opacity="1"
      />
    </g>
  </g>
</svg>