<svg
  xmlns="http://www.w3.org/2000/svg"
  xmlns:xlink="http://www.w3.org/1999/xlink"
  fill="none"
  version="1.1"
  width="32"
  height="32"
  viewBox="0 0 32 32"
>
  <defs>
    <clipPath id="master_svg0_3_1773">
      <rect x="0" y="0" width="32" height="32" rx="0" />
    </clipPath>
  </defs>
  <g clip-path="url(#master_svg0_3_1773)">
    <g>
      <path
        d="M20.006401293945313,16.238401336669924L12.163201293945313,16.238401336669924C11.633601293945313,16.238401336669924,11.203201293945312,15.808001336669921,11.203201293945312,15.278401336669923C11.203201293945312,14.748801336669922,11.633601293945313,14.318401336669922,12.163201293945313,14.318401336669922L20.006401293945313,14.318401336669922C20.53600129394531,14.318401336669922,20.96640129394531,14.748801336669922,20.96640129394531,15.278401336669923C20.96640129394531,15.808001336669921,20.53600129394531,16.238401336669924,20.006401293945313,16.238401336669924ZM20.006401293945313,22.182401336669923L12.163201293945313,22.182401336669923C11.633601293945313,22.182401336669923,11.203201293945312,21.75200133666992,11.203201293945312,21.222401336669922C11.203201293945312,20.692801336669923,11.633601293945313,20.26240133666992,12.163201293945313,20.26240133666992L20.006401293945313,20.26240133666992C20.53600129394531,20.26240133666992,20.96640129394531,20.692801336669923,20.96640129394531,21.222401336669922C20.96640129394531,21.75200133666992,20.53600129394531,22.182401336669923,20.006401293945313,22.182401336669923Z"
        fill="#B11EFF"
        fill-opacity="1"
      />
    </g>
    <g>
      <path
        d="M27.196804296875,16.19040114746094C26.667204296875,16.19040114746094,26.236804296875,16.620801147460938,26.236804296875,17.15040114746094L26.236804296875,24.244801147460937C26.236804296875,26.19360114746094,24.651204296875,27.779201147460938,22.704004296875,27.779201147460938L9.467204296875,27.779201147460938C7.518404296875,27.779201147460938,5.934404296875,26.19360114746094,5.934404296875,24.244801147460937L5.934404296875,10.681601147460938C5.934404296875,8.732801147460938,7.520004296874999,7.148801147460937,9.467204296875,7.148801147460937L9.862404296874999,7.148801147460937C10.246404296875,9.006401147460938,11.894404296874999,10.406401147460938,13.864004296875,10.406401147460938L18.307204296875,10.406401147460938C20.276804296875,10.406401147460938,21.924804296875,9.006401147460938,22.308804296875,7.148801147460937L22.704004296875,7.148801147460937C24.652804296875,7.148801147460937,26.236804296875,8.734401147460938,26.236804296875,10.681601147460938C26.236804296875,11.211201147460937,26.667204296875,11.641601147460937,27.196804296875,11.641601147460937C27.726404296875,11.641601147460937,28.156804296875,11.211201147460937,28.156804296875,10.681601147460938C28.156804296875,7.675201147460937,25.710404296875,5.2288011474609375,22.704004296875,5.2288011474609375L22.243204296875,5.2288011474609375C21.763204296875,3.505601147460937,20.182404296875,2.2368011474609375,18.307204296875,2.2368011474609375L13.864004296875,2.2368011474609375C11.990404296874999,2.2368011474609375,10.408004296875,3.505601147460937,9.928004296874999,5.2288011474609375L9.467204296875,5.2288011474609375C6.460804296875001,5.2288011474609375,4.014404296875,7.675201147460937,4.014404296875,10.681601147460938L4.014404296875,24.244801147460937C4.014404296875,27.251201147460936,6.460804296875001,29.699201147460936,9.467204296875,29.699201147460936L22.702404296875,29.699201147460936C25.708804296875,29.699201147460936,28.155204296875,27.252801147460936,28.155204296875,24.244801147460937L28.155204296875,17.15040114746094C28.156804296875,16.620801147460938,27.726404296875,16.19040114746094,27.196804296875,16.19040114746094ZM13.864004296875,4.156801147460937L18.307204296875,4.156801147460937C19.500804296875,4.156801147460937,20.472004296875,5.128001147460937,20.472004296875,6.321601147460938C20.472004296875,7.515201147460938,19.500804296875,8.486401147460938,18.307204296875,8.486401147460938L13.864004296875,8.486401147460938C12.670404296875,8.486401147460938,11.699204296875,7.515201147460938,11.699204296875,6.321601147460938C11.697604296875,5.128001147460937,12.668804296875,4.156801147460937,13.864004296875,4.156801147460937Z"
        fill="#363F5B"
        fill-opacity="1"
      />
    </g>
  </g>
</svg>