<svg xmlns="http://www.w3.org/2000/svg" xmlns:xlink="http://www.w3.org/1999/xlink" fill="none" version="1.1" width="16" height="16" viewBox="0 0 16 16"><defs><clipPath id="master_svg0_132_6713"><rect x="0" y="0" width="16" height="16" rx="0"/></clipPath></defs><g clip-path="url(#master_svg0_132_6713)"><g><path d="M13.952056640625,2.000000238419Q14.400056640625,2.000000238419,14.712056640625,2.312Q15.024056640625,2.624,15.024056640625,3.072L15.024056640625,3.888Q15.024056640625,4.336,14.712056640625,4.648Q14.400056640625,4.96,13.952056640625,4.96L2.080056640625,4.96Q1.632056640625,4.96,1.320056640625,4.648Q1.008056640625,4.336,1.008056640625,3.888L1.008056640625,3.072Q1.008056640625,2.624,1.320056640625,2.312Q1.632056640625,2,2.080056640625,2L13.952056640625,2.000000238419ZM13.952056640625,7.008Q14.400056640625,7.008,14.712056640625,7.32Q15.024056640625,7.632,15.024056640625,8.08L15.024056640625,8.896Q15.024056640625,9.344000000000001,14.712056640625,9.655999999999999Q14.400056640625,9.968,13.952056640625,9.968L2.080056640625,9.968Q1.632056640625,9.968,1.320056640625,9.655999999999999Q1.008056640625,9.344000000000001,1.008056640625,8.896L1.008056640625,8.08Q1.008056640625,7.632,1.320056640625,7.32Q1.632056640625,7.008,2.080056640625,7.008L13.952056640625,7.008ZM13.952056640625,12.016Q14.400056640625,12.016,14.712056640625,12.328Q15.024056640625,12.64,15.024056640625,13.088L15.024056640625,13.904Q15.024056640625,14.352,14.712056640625,14.664Q14.400056640625,14.976,13.952056640625,14.976L2.080056640625,14.976Q1.632056640625,14.976,1.320056640625,14.664Q1.008056640625,14.352,1.008056640625,13.904L1.008056640625,13.088Q1.008056640625,12.64,1.320056640625,12.328Q1.632056640625,12.016,2.080056640625,12.016L13.952056640625,12.016Z" fill="#9E9E9E" fill-opacity="1"/></g></g></svg>