<svg xmlns="http://www.w3.org/2000/svg" xmlns:xlink="http://www.w3.org/1999/xlink" fill="none" version="1.1" width="24" height="24" viewBox="0 0 24 24"><defs><clipPath id="master_svg0_132_2395"><rect x="0" y="0" width="24" height="24" rx="0"/></clipPath></defs><g clip-path="url(#master_svg0_132_2395)"><g><path d="M6.99993896484375,3C4.3099389648437505,3,1.99993896484375,5.042,1.99993896484375,7.714L1.99993896484375,13.286C1.99993896484375,15.958,4.3099389648437505,18,6.99993896484375,18C7.55221896484375,18,7.99993896484375,17.552300000000002,7.99993896484375,17C7.99993896484375,16.447699999999998,7.55221896484375,16,6.99993896484375,16C5.27193896484375,16,3.99993896484375,14.716,3.99993896484375,13.286L3.99993896484375,7.714C3.99993896484375,6.284,5.27193896484375,5,6.99993896484375,5L16.99993896484375,5C18.72793896484375,5,19.99993896484375,6.284,19.99993896484375,7.714L19.99993896484375,13.286C19.99993896484375,14.716,18.72793896484375,16,16.99993896484375,16C16.447638964843748,16,15.99993896484375,16.447699999999998,15.99993896484375,17L15.99993896484375,19.255L12.66893896484375,16.256999999999998C12.48533896484375,16.0916,12.24703896484375,16.0001,11.99993896484375,16L10.99993896484375,16C10.44764896484375,16,9.99993896484375,16.447699999999998,9.99993896484375,17C9.99993896484375,17.552300000000002,10.44764896484375,18,10.99993896484375,18L11.61593896484375,18L14.66193896484375,20.741C15.94993896484375,21.9,17.99993896484375,20.986,17.99993896484375,19.255L17.99993896484375,17.905C20.23793896484375,17.473,21.99993896484375,15.619,21.99993896484375,13.285L21.99993896484375,7.715C21.99993896484375,5.041,19.68993896484375,3,16.99993896484375,3L6.99993896484375,3ZM5.99993896484375,8C5.99993896484375,7.44772,6.44764896484375,7,6.99993896484375,7L16.99993896484375,7C17.552238964843752,7,17.99993896484375,7.44772,17.99993896484375,8C17.99993896484375,8.55229,17.552238964843752,9,16.99993896484375,9L6.99993896484375,9C6.44764896484375,9,5.99993896484375,8.55229,5.99993896484375,8ZM6.99993896484375,11C6.44764896484375,11,5.99993896484375,11.44772,5.99993896484375,12C5.99993896484375,12.55228,6.44764896484375,13,6.99993896484375,13L12.99993896484375,13C13.55223896484375,13,13.99993896484375,12.55228,13.99993896484375,12C13.99993896484375,11.44772,13.55223896484375,11,12.99993896484375,11L6.99993896484375,11Z" fill="#14101C" fill-opacity="1"/></g></g></svg>