<svg
  xmlns="http://www.w3.org/2000/svg"
  xmlns:xlink="http://www.w3.org/1999/xlink"
  fill="none"
  version="1.1"
  width="24"
  height="24"
  viewBox="0 0 24 24"
>
  <defs>
    <clipPath id="master_svg0_72_0420">
      <rect x="0" y="0" width="24" height="24" rx="0" />
    </clipPath>
  </defs>
  <g clip-path="url(#master_svg0_72_0420)">
    <g>
      <path
        d="M17.5,11.999998310546875C17.5,13.214898310546875,18.485419,14.199978310546875,19.69998,14.199978310546875C20.91526,14.199978310546875,21.89996,13.214918310546874,21.89996,11.999998310546875C21.89996,10.785078310546876,20.91526,9.800018310546875,19.69998,9.800018310546875C18.485419,9.800042629246875,17.5,10.785078310546876,17.5,11.999998310546875Z"
        fill="#A8A8A8"
        fill-opacity="1"
      />
    </g>
    <g>
      <path
        d="M2.10009765625,11.999998310546875C2.10009765625,13.214898310546875,3.08549365625,14.199978310546875,4.30005765625,14.199978310546875C5.514637656250001,14.199978310546875,6.50003765625,13.214918310546874,6.50003765625,11.999998310546875C6.50003765625,10.785078310546876,5.514637656250001,9.800018310546875,4.30005765625,9.800018310546875C3.08551765625,9.800042629246875,2.10009765625,10.785078310546876,2.10009765625,11.999998310546875Z"
        fill="#A8A8A8"
        fill-opacity="1"
      />
    </g>
    <g>
      <path
        d="M9.800048828125,11.999998310546875C9.800048828125,13.214898310546875,10.784748828125,14.199978310546875,12.000048828125,14.199978310546875C13.214618828125,14.199978310546875,14.200008828125,13.214918310546874,14.200008828125,11.999998310546875C14.200008828125,10.785078310546876,13.214608828125,9.800018310546875,12.000048828125,9.800018310546875C10.784748828125,9.800042629246875,9.800048828125,10.785078310546876,9.800048828125,11.999998310546875Z"
        fill="#A8A8A8"
        fill-opacity="1"
      />
    </g>
  </g>
</svg>