<svg
  xmlns="http://www.w3.org/2000/svg"
  xmlns:xlink="http://www.w3.org/1999/xlink"
  fill="none"
  version="1.1"
  width="13.403564453125"
  height="13.565113067626953"
  viewBox="0 0 13.403564453125 13.565113067626953"
>
  <g>
    <path
      d="M1.869,9.17469L6.06494,11.1614C6.31889,11.2775,6.43873,11.3559,6.69269,11.3559C6.90841,11.3568,7.12054,11.2976,7.3076,11.184C7.33108,11.1672,7.3559,11.1526,7.38179,11.1403L11.3437,9.37969C11.4672,9.32625,11.6055,9.32625,11.729,9.37969L13.1214,9.98415C13.4567,10.1304,13.4596,10.5675,13.1271,10.7167L6.90099,13.5235C6.77399,13.58,6.63058,13.5789,6.50436,13.5205L0.256818,10.6037C-0.0713246,10.4484,-0.065618,10.0173,0.268231,9.8726L1.869,9.17469ZM1.67924,5.75443C1.8004,5.70208,1.93617,5.70208,2.05732,5.75443L6.16623,7.53164L6.21902,7.54973C6.59534,7.65944,6.99362,7.65211,7.36609,7.52862L11.3423,5.75745C11.4654,5.70304,11.6037,5.70196,11.7275,5.75443L13.1357,6.36794C13.4681,6.51265,13.4752,6.94527,13.1471,7.09751L6.90241,10.0158C6.77468,10.0752,6.62924,10.0752,6.50151,10.0158L0.256818,7.09902C-0.0713246,6.94527,-0.065618,6.51415,0.268231,6.36945L1.67924,5.75443ZM6.50579,0.0414541C6.63084,-0.0138178,6.77165,-0.0138178,6.89671,0.0414541L13.1557,2.86327C13.4838,3.011,13.4867,3.43759,13.1614,3.58983L6.90241,6.51415C6.77468,6.57351,6.62924,6.57351,6.50151,6.51415L0.241124,3.58833C-0.0827384,3.43759,-0.079885,3.00949,0.246831,2.86177L6.50579,0.0414541Z"
      fill="#FF8F1F"
      fill-opacity="1"
    />
  </g>
</svg>