<svg
  xmlns="http://www.w3.org/2000/svg"
  xmlns:xlink="http://www.w3.org/1999/xlink"
  fill="none"
  version="1.1"
  width="16"
  height="16"
  viewBox="0 0 13.3330078125 13"
>
  <g>
    <g>
      <path
        d="M3.90119,12.8224C3.34002,13.1711,2.60619,12.9908,2.26536,12.4231C2.10378,12.1536,2.05356,11.8317,2.12536,11.5258L2.85169,8.42825C2.86931,8.35479,2.84518,8.27759,2.78886,8.22725L0.411356,6.15558C-0.0824773,5.72558,-0.139477,4.97358,0.282689,4.47225C0.485586,4.23067,0.776606,4.08018,1.09102,4.05425L4.21119,3.80008C4.27919,3.79442,4.34002,3.74958,4.36786,3.68142L5.57002,0.741251C5.82052,0.128751,6.51719,-0.163749,7.12502,0.0934176C7.41491,0.216614,7.64427,0.449513,7.76302,0.741251L8.96519,3.68125C8.99302,3.74958,9.05386,3.79458,9.12185,3.80008L12.2424,4.05442C12.8967,4.10775,13.3812,4.68658,13.3294,5.34375C13.305,5.65736,13.1587,5.94893,12.9219,6.15592L10.5444,8.22758C10.489,8.27575,10.464,8.35375,10.4815,8.42842L11.2079,11.5259C11.3582,12.1668,10.9679,12.8124,10.3307,12.9669C10.0238,13.0414,9.69995,12.9894,9.43186,12.8226L6.76036,11.1626C6.70298,11.1266,6.63006,11.1266,6.57269,11.1626L3.90102,12.8226L3.90119,12.8224Z"
        fill="#51AEFA"
        fill-opacity="1"
      />
    </g>
  </g>
</svg>