<svg
  xmlns="http://www.w3.org/2000/svg"
  xmlns:xlink="http://www.w3.org/1999/xlink"
  fill="none"
  version="1.1"
  width="24"
  height="24"
  viewBox="0 0 24 24"
>
  <defs>
    <clipPath id="master_svg0_104_1339">
      <rect x="0" y="0" width="24" height="24" rx="0" />
    </clipPath>
  </defs>
  <g clip-path="url(#master_svg0_104_1339)">
    <g>
      <g>
        <g>
          <rect
            x="0"
            y="0"
            width="24"
            height="24"
            rx="0"
            fill="#FFFFFF"
            fill-opacity="0.009999999776482582"
          />
        </g>
        <g>
          <g>
            <path
              d="M2.5,16.75L2.5,2.75Q2.5,2.6515086,2.519215,2.55491Q2.53843,2.458311,2.576121,2.367317Q2.6138120000000002,2.276322,2.66853,2.19443Q2.723249,2.112537,2.792893,2.042893Q2.862537,1.973249,2.94443,1.91853Q3.026322,1.863812,3.117317,1.826121Q3.208311,1.78843,3.30491,1.769215Q3.4015086,1.75,3.5,1.75L20.5,1.75Q20.5985,1.75,20.6951,1.769215Q20.7917,1.78843,20.8827,1.826121Q20.9737,1.863812,21.0556,1.91853Q21.1375,1.973249,21.2071,2.042893Q21.2767,2.112537,21.3315,2.19443Q21.3862,2.276322,21.4239,2.367317Q21.4616,2.458311,21.4808,2.55491Q21.5,2.6515086,21.5,2.75L21.5,16.75Q21.5,16.8485,21.4808,16.9451Q21.4616,17.0417,21.4239,17.1327Q21.3862,17.2237,21.3315,17.3056Q21.2767,17.3875,21.2071,17.4571Q21.1375,17.526699999999998,21.0556,17.5815Q20.9737,17.636200000000002,20.8827,17.6739Q20.7917,17.7116,20.6951,17.730800000000002Q20.5985,17.75,20.5,17.75L3.5,17.75Q3.4015086,17.75,3.30491,17.730800000000002Q3.208311,17.7116,3.117317,17.6739Q3.026322,17.636200000000002,2.94443,17.5815Q2.862537,17.526699999999998,2.792893,17.4571Q2.723249,17.3875,2.66853,17.3056Q2.6138120000000002,17.2237,2.576121,17.1327Q2.53843,17.0417,2.519215,16.9451Q2.5,16.8485,2.5,16.75ZM4.5,3.75L4.5,15.75L19.5,15.75L19.5,3.75L4.5,3.75Z"
              fill="#333333"
              fill-opacity="1"
            />
          </g>
          <g>
            <path
              d="M15.29289,21.45711L11.29289,17.457107L12,16.75L12.70711,17.457107L8.707107,21.45711Q8.637463,21.52675,8.55557,21.58147Q8.473678,21.63619,8.382683,21.67388Q8.291689,21.711570000000002,8.19509,21.73078Q8.0984914,21.75,8,21.75Q7.9015086,21.75,7.80491,21.73078Q7.708311,21.711570000000002,7.617317,21.67388Q7.526322,21.63619,7.44443,21.58147Q7.362537,21.52675,7.292893,21.45711Q7.223249,21.38746,7.16853,21.30557Q7.113812,21.22368,7.076121,21.13268Q7.03843,21.04169,7.019215,20.94509Q7,20.848489999999998,7,20.75Q7,20.651510000000002,7.019215,20.55491Q7.03843,20.45831,7.076121,20.36732Q7.113812,20.27632,7.16853,20.19443Q7.223249,20.11254,7.292893,20.04289L11.29289,16.042893Q11.36254,15.973249,11.44443,15.91853Q11.52632,15.863812,11.61732,15.826121Q11.70831,15.78843,11.80491,15.769214999999999Q11.90151,15.75,12,15.75Q12.09849,15.75,12.19509,15.769214999999999Q12.29169,15.78843,12.38268,15.826121Q12.47368,15.863812,12.55557,15.91853Q12.63746,15.973249,12.70711,16.042893L16.70711,20.04289Q16.77675,20.11254,16.83147,20.19443Q16.88619,20.27632,16.92388,20.36732Q16.961570000000002,20.45831,16.98078,20.55491Q17,20.651510000000002,17,20.75Q17,20.848489999999998,16.98078,20.94509Q16.961570000000002,21.04169,16.92388,21.13268Q16.88619,21.22368,16.83147,21.30557Q16.77675,21.38746,16.70711,21.45711Q16.63746,21.52675,16.55557,21.58147Q16.47368,21.63619,16.38268,21.67388Q16.29169,21.711570000000002,16.19509,21.73078Q16.098489999999998,21.75,16,21.75Q15.90151,21.75,15.80491,21.73078Q15.70831,21.711570000000002,15.61732,21.67388Q15.52632,21.63619,15.44443,21.58147Q15.36254,21.52675,15.29289,21.45711ZM17,20.75Q17,20.848489999999998,16.98078,20.94509Q16.961570000000002,21.04169,16.92388,21.13268Q16.88619,21.22368,16.83147,21.30557Q16.77675,21.38746,16.70711,21.45711Q16.63746,21.52675,16.55557,21.58147Q16.47368,21.63619,16.38268,21.67388Q16.29169,21.711570000000002,16.19509,21.73078Q16.098489999999998,21.75,16,21.75Q15.90151,21.75,15.80491,21.73078Q15.70831,21.711570000000002,15.61732,21.67388Q15.52632,21.63619,15.44443,21.58147Q15.36254,21.52675,15.29289,21.45711Q15.22325,21.38746,15.16853,21.30557Q15.11381,21.22368,15.07612,21.13268Q15.03843,21.04169,15.019210000000001,20.94509Q15,20.848489999999998,15,20.75Q15,20.651510000000002,15.019210000000001,20.55491Q15.03843,20.45831,15.07612,20.36732Q15.11381,20.27632,15.16853,20.19443Q15.22325,20.11254,15.29289,20.04289Q15.36254,19.97325,15.44443,19.91853Q15.52632,19.86381,15.61732,19.82612Q15.70831,19.788429999999998,15.80491,19.76921Q15.90151,19.75,16,19.75Q16.098489999999998,19.75,16.19509,19.76921Q16.29169,19.788429999999998,16.38268,19.82612Q16.47368,19.86381,16.55557,19.91853Q16.63746,19.97325,16.70711,20.04289Q16.77675,20.11254,16.83147,20.19443Q16.88619,20.27632,16.92388,20.36732Q16.961570000000002,20.45831,16.98078,20.55491Q17,20.651510000000002,17,20.75ZM9,20.75Q9,20.848489999999998,8.980785000000001,20.94509Q8.96157,21.04169,8.923879,21.13268Q8.886188,21.22368,8.83147,21.30557Q8.776751,21.38746,8.707107,21.45711Q8.637463,21.52675,8.55557,21.58147Q8.473678,21.63619,8.382683,21.67388Q8.291689,21.711570000000002,8.19509,21.73078Q8.0984914,21.75,8,21.75Q7.9015086,21.75,7.80491,21.73078Q7.708311,21.711570000000002,7.617317,21.67388Q7.526322,21.63619,7.44443,21.58147Q7.362537,21.52675,7.292893,21.45711Q7.223249,21.38746,7.16853,21.30557Q7.113812,21.22368,7.076121,21.13268Q7.03843,21.04169,7.019215,20.94509Q7,20.848489999999998,7,20.75Q7,20.651510000000002,7.019215,20.55491Q7.03843,20.45831,7.076121,20.36732Q7.113812,20.27632,7.16853,20.19443Q7.223249,20.11254,7.292893,20.04289Q7.362537,19.97325,7.44443,19.91853Q7.526322,19.86381,7.617317,19.82612Q7.708311,19.788429999999998,7.80491,19.76921Q7.9015086,19.75,8,19.75Q8.0984914,19.75,8.19509,19.76921Q8.291689,19.788429999999998,8.382683,19.82612Q8.473678,19.86381,8.55557,19.91853Q8.637463,19.97325,8.707107,20.04289Q8.776751,20.11254,8.83147,20.19443Q8.886188,20.27632,8.923879,20.36732Q8.96157,20.45831,8.980785000000001,20.55491Q9,20.651510000000002,9,20.75Z"
              fill="#333333"
              fill-opacity="1"
            />
          </g>
          <g
            transform="matrix(-0.7071067690849304,-0.7071067690849304,0.7071067690849304,-0.7071067690849304,5.395552731673206,31.35856803014144)"
          >
            <path
              d="M8.199614480224609,25.588428613281252L8.192349480224609,18.53936861328125Q8.19224848022461,18.44150861328125,8.21112048022461,18.34548861328125Q8.22999248022461,18.249468613281252,8.26712148022461,18.15892861328125Q8.30425048022461,18.06838861328125,8.35822748022461,17.98675861328125Q8.412205480224609,17.90512861328125,8.48098248022461,17.835518613281252Q8.54975948022461,17.76590861328125,8.630727480224609,17.71094861328125Q8.71169548022461,17.65598861328125,8.80178248022461,17.61776861328125Q8.891868480224609,17.57954861328125,8.987655480224609,17.55951861328125Q9.08344248022461,17.53947861328125,9.181295480224609,17.53839861328125L12.287908480224608,17.50405861328125L12.298968480224609,18.50399861328125L11.29903848022461,18.49191861328125L11.34666848022461,14.54974631328125Q11.347858480224609,14.45126161328125,11.368238480224608,14.35490261328125Q11.38861848022461,14.25854261328125,11.42740848022461,14.16801061328125Q11.466198480224609,14.07747861328125,11.521898480224609,13.99625261328125Q11.57760848022461,13.91502761328125,11.64808848022461,13.84622961328125Q11.71856848022461,13.77743261328125,11.80111848022461,13.72370761328125Q11.883658480224609,13.66998161328125,11.975108480224609,13.63339261328125Q12.06654848022461,13.59680361328125,12.163368480224609,13.57875761328125Q12.26019848022461,13.56070861328125,12.35867848022461,13.56190161328125Q12.45716848022461,13.56309161328125,12.55352848022461,13.58347261328125Q12.64988848022461,13.60385261328125,12.740418480224609,13.64264061328125Q12.83094848022461,13.681427613281251,12.91217848022461,13.73713261328125Q12.99339848022461,13.79283661328125,13.062198480224609,13.863316613281249Q13.130998480224608,13.93379761328125,13.18471848022461,14.01634561328125Q13.238448480224609,14.09889261328125,13.275038480224609,14.19033561328125Q13.31162848022461,14.28177861328125,13.329668480224608,14.37860261328125Q13.347718480224609,14.47542671328125,13.34652848022461,14.57391091328125L13.298888480224608,18.51608861328125Q13.29771848022461,18.61310861328125,13.27791848022461,18.70809861328125Q13.25810848022461,18.80308861328125,13.220418480224609,18.892498613281248Q13.18271848022461,18.98190861328125,13.12853848022461,19.06239861328125Q13.07435848022461,19.14289861328125,13.005708480224609,19.211468613281248Q12.937058480224609,19.28004861328125,12.856508480224608,19.33414861328125Q12.77595848022461,19.38824861328125,12.68650848022461,19.42584861328125Q12.597058480224609,19.46345861328125,12.502048480224609,19.48315861328125Q12.40704848022461,19.50286861328125,12.31001848022461,19.50393861328125L9.20340148022461,19.53827861328125L9.19234848022461,18.53833861328125L10.19234748022461,18.53730861328125L10.19960848022461,25.58632861328125Q10.19971848022461,25.684828613281248,10.18059948022461,25.78142861328125Q10.16148448022461,25.87812861328125,10.12388648022461,25.96912861328125Q10.08628948022461,26.06012861328125,10.03165548022461,26.14212861328125Q9.97702048022461,26.22402861328125,9.907448480224609,26.29372861328125Q9.83787648022461,26.36342861328125,9.756040480224609,26.41832861328125Q9.67420448022461,26.47312861328125,9.58324848022461,26.510828613281248Q9.492293480224609,26.548628613281252,9.39571448022461,26.56792861328125Q9.29913548022461,26.58732861328125,9.200644220224609,26.58742861328125Q9.10215288022461,26.58752861328125,9.00553448022461,26.568328613281253Q8.908915480224609,26.54922861328125,8.81788248022461,26.51162861328125Q8.72684948022461,26.47402861328125,8.64490048022461,26.419428613281248Q8.562951480224609,26.36482861328125,8.49323648022461,26.29522861328125Q8.42352048022461,26.225628613281252,8.368717480224609,26.14382861328125Q8.31391348022461,26.06192861328125,8.27612948022461,25.97102861328125Q8.23834448022461,25.880028613281247,8.21902948022461,25.78352861328125Q8.19971548022461,25.68692861328125,8.199614480224609,25.588428613281252ZM10.19961848022461,25.58742861328125Q10.19961848022461,25.685828613281252,10.180398480224609,25.782428613281247Q10.161184480224609,25.87902861328125,10.12349348022461,25.97002861328125Q10.08580248022461,26.061028613281252,10.03108348022461,26.14292861328125Q9.976364480224609,26.22482861328125,9.90672048022461,26.29452861328125Q9.83707648022461,26.364128613281252,9.75518348022461,26.41882861328125Q9.67329148022461,26.47352861328125,9.58229648022461,26.51122861328125Q9.49130248022461,26.548928613281248,9.39470348022461,26.56812861328125Q9.298104480224609,26.58742861328125,9.19961357022461,26.58742861328125Q9.101122180224609,26.58742861328125,9.00452348022461,26.56812861328125Q8.90792448022461,26.548928613281248,8.81693048022461,26.51122861328125Q8.72593548022461,26.47352861328125,8.64404348022461,26.41882861328125Q8.56215048022461,26.364128613281252,8.492506480224609,26.29452861328125Q8.422862480224609,26.22482861328125,8.36814448022461,26.14292861328125Q8.313425480224609,26.061028613281252,8.27573448022461,25.97002861328125Q8.23804348022461,25.87902861328125,8.218828480224609,25.782428613281247Q8.19961348022461,25.685828613281252,8.19961348022461,25.58742861328125Q8.19961348022461,25.48892861328125,8.218828480224609,25.39232861328125Q8.23804348022461,25.29572861328125,8.27573448022461,25.204728613281247Q8.313425480224609,25.11372861328125,8.36814348022461,25.03182861328125Q8.422862480224609,24.94992861328125,8.492506480224609,24.88022861328125Q8.56215048022461,24.81062861328125,8.64404348022461,24.75592861328125Q8.72593548022461,24.701228613281252,8.81693048022461,24.66352861328125Q8.90792448022461,24.62582861328125,9.00452348022461,24.606628613281252Q9.101122180224609,24.58742861328125,9.19961357022461,24.58742861328125Q9.298104480224609,24.58742861328125,9.39470348022461,24.606628613281252Q9.49130248022461,24.62582861328125,9.58229648022461,24.66352861328125Q9.67329148022461,24.701228613281252,9.75518348022461,24.75592861328125Q9.83707648022461,24.81062861328125,9.90672048022461,24.88022861328125Q9.976364480224609,24.94992861328125,10.03108348022461,25.03182861328125Q10.08580248022461,25.11372861328125,10.12349348022461,25.204728613281247Q10.161184480224609,25.29572861328125,10.180398480224609,25.39232861328125Q10.19961848022461,25.48892861328125,10.19961848022461,25.58742861328125ZM13.34659848022461,14.56182861328125Q13.34659848022461,14.66032001328125,13.32738848022461,14.75691861328125Q13.308168480224609,14.85351761328125,13.27047848022461,14.94451161328125Q13.23278848022461,15.03550661328125,13.17806848022461,15.11739861328125Q13.12334848022461,15.19929161328125,13.053708480224609,15.26893561328125Q12.98405848022461,15.33857961328125,12.90216848022461,15.39329861328125Q12.820278480224609,15.44801661328125,12.72927848022461,15.48570761328125Q12.63828848022461,15.52339861328125,12.54168848022461,15.542613613281251Q12.445088480224609,15.56182861328125,12.34659848022461,15.56182861328125Q12.248108480224609,15.56182861328125,12.15150848022461,15.542613613281251Q12.05490848022461,15.52339861328125,11.96391848022461,15.48570761328125Q11.872918480224609,15.44801661328125,11.79102848022461,15.39329861328125Q11.70913848022461,15.33857961328125,11.63948848022461,15.26893561328125Q11.569848480224609,15.19929161328125,11.51512848022461,15.11739861328125Q11.46040848022461,15.03550661328125,11.42271848022461,14.94451161328125Q11.385028480224609,14.85351761328125,11.36581848022461,14.75691861328125Q11.34659848022461,14.66032001328125,11.34659848022461,14.56182861328125Q11.34659848022461,14.46333721328125,11.36581848022461,14.36673861328125Q11.385028480224609,14.27013961328125,11.42271848022461,14.17914561328125Q11.46040848022461,14.08815061328125,11.51512848022461,14.00625861328125Q11.569848480224609,13.92436561328125,11.63948848022461,13.85472161328125Q11.70913848022461,13.78507761328125,11.79102848022461,13.73035861328125Q11.872918480224609,13.67564061328125,11.96391848022461,13.63794961328125Q12.05490848022461,13.60025861328125,12.15150848022461,13.581043613281249Q12.248108480224609,13.56182861328125,12.34659848022461,13.56182861328125Q12.445088480224609,13.56182861328125,12.54168848022461,13.581043613281249Q12.63828848022461,13.60025861328125,12.72927848022461,13.63794961328125Q12.820278480224609,13.67564061328125,12.90216848022461,13.73035861328125Q12.98405848022461,13.78507761328125,13.053708480224609,13.85472161328125Q13.12334848022461,13.92436561328125,13.17806848022461,14.00625861328125Q13.23278848022461,14.08815061328125,13.27047848022461,14.17914561328125Q13.308168480224609,14.27013961328125,13.32738848022461,14.36673861328125Q13.34659848022461,14.46333721328125,13.34659848022461,14.56182861328125Z"
              fill="#333333"
              fill-opacity="1"
            />
          </g>
          <g>
            <path
              d="M22,3.75L2,3.75Q1.9015086,3.75,1.80491,3.730785Q1.7083110000000001,3.71157,1.617317,3.673879Q1.526322,3.6361879999999998,1.44443,3.58147Q1.362537,3.526751,1.2928929999999998,3.457107Q1.223249,3.387463,1.16853,3.30557Q1.113812,3.223678,1.076121,3.132683Q1.03843,3.041689,1.019215,2.94509Q1,2.8484914,1,2.75Q1,2.6515086,1.019215,2.55491Q1.03843,2.458311,1.076121,2.367317Q1.113812,2.276322,1.16853,2.19443Q1.223249,2.112537,1.2928929999999998,2.042893Q1.362537,1.973249,1.44443,1.91853Q1.526322,1.863812,1.617317,1.826121Q1.7083110000000001,1.78843,1.80491,1.769215Q1.9015086,1.75,2,1.75L22,1.75Q22.0985,1.75,22.1951,1.769215Q22.2917,1.78843,22.3827,1.826121Q22.4737,1.863812,22.5556,1.91853Q22.6375,1.973249,22.7071,2.042893Q22.7767,2.112537,22.8315,2.19443Q22.8862,2.276322,22.9239,2.367317Q22.9616,2.458311,22.9808,2.55491Q23,2.6515086,23,2.75Q23,2.8484914,22.9808,2.94509Q22.9616,3.041689,22.9239,3.132683Q22.8862,3.223678,22.8315,3.30557Q22.7767,3.387463,22.7071,3.457107Q22.6375,3.526751,22.5556,3.58147Q22.4737,3.6361879999999998,22.3827,3.673879Q22.2917,3.71157,22.1951,3.730785Q22.0985,3.75,22,3.75ZM23,2.75Q23,2.8484914,22.9808,2.94509Q22.9616,3.041689,22.9239,3.132683Q22.8862,3.223678,22.8315,3.30557Q22.7767,3.387463,22.7071,3.457107Q22.6375,3.526751,22.5556,3.58147Q22.4737,3.6361879999999998,22.3827,3.673879Q22.2917,3.71157,22.1951,3.730785Q22.0985,3.75,22,3.75Q21.9015,3.75,21.8049,3.730785Q21.7083,3.71157,21.6173,3.673879Q21.5263,3.6361879999999998,21.4444,3.58147Q21.3625,3.526751,21.2929,3.457107Q21.2232,3.387463,21.1685,3.30557Q21.1138,3.223678,21.0761,3.132683Q21.0384,3.041689,21.0192,2.94509Q21,2.8484914,21,2.75Q21,2.6515086,21.0192,2.55491Q21.0384,2.458311,21.0761,2.367317Q21.1138,2.276322,21.1685,2.19443Q21.2232,2.112537,21.2929,2.042893Q21.3625,1.973249,21.4444,1.91853Q21.5263,1.863812,21.6173,1.826121Q21.7083,1.78843,21.8049,1.769215Q21.9015,1.75,22,1.75Q22.0985,1.75,22.1951,1.769215Q22.2917,1.78843,22.3827,1.826121Q22.4737,1.863812,22.5556,1.91853Q22.6375,1.973249,22.7071,2.042893Q22.7767,2.112537,22.8315,2.19443Q22.8862,2.276322,22.9239,2.367317Q22.9616,2.458311,22.9808,2.55491Q23,2.6515086,23,2.75ZM3,2.75Q3,2.8484914,2.980785,2.94509Q2.96157,3.041689,2.923879,3.132683Q2.8861879999999998,3.223678,2.83147,3.30557Q2.776751,3.387463,2.707107,3.457107Q2.637463,3.526751,2.55557,3.58147Q2.473678,3.6361879999999998,2.382683,3.673879Q2.291689,3.71157,2.19509,3.730785Q2.0984914,3.75,2,3.75Q1.9015086,3.75,1.80491,3.730785Q1.7083110000000001,3.71157,1.617317,3.673879Q1.526322,3.6361879999999998,1.44443,3.58147Q1.362537,3.526751,1.2928929999999998,3.457107Q1.223249,3.387463,1.16853,3.30557Q1.113812,3.223678,1.076121,3.132683Q1.03843,3.041689,1.019215,2.94509Q1,2.8484914,1,2.75Q1,2.6515086,1.019215,2.55491Q1.03843,2.458311,1.076121,2.367317Q1.113812,2.276322,1.16853,2.19443Q1.223249,2.112537,1.2928929999999998,2.042893Q1.362537,1.973249,1.44443,1.91853Q1.526322,1.863812,1.617317,1.826121Q1.7083110000000001,1.78843,1.80491,1.769215Q1.9015086,1.75,2,1.75Q2.0984914,1.75,2.19509,1.769215Q2.291689,1.78843,2.382683,1.826121Q2.473678,1.863812,2.55557,1.91853Q2.637463,1.973249,2.707107,2.042893Q2.776751,2.112537,2.83147,2.19443Q2.8861879999999998,2.276322,2.923879,2.367317Q2.96157,2.458311,2.980785,2.55491Q3,2.6515086,3,2.75Z"
              fill="#333333"
              fill-opacity="1"
            />
          </g>
        </g>
      </g>
    </g>
  </g>
</svg>