<svg
  xmlns="http://www.w3.org/2000/svg"
  xmlns:xlink="http://www.w3.org/1999/xlink"
  fill="none"
  version="1.1"
  width="24"
  height="24"
  viewBox="0 0 24 24"
>
  <defs>
    <clipPath id="master_svg0_76_0436">
      <rect x="0" y="0" width="24" height="24" rx="0" />
    </clipPath>
  </defs>
  <g clip-path="url(#master_svg0_76_0436)">
    <g>
      <path
        d="M20.2197,2.7197404326171877C20.5111,2.4181283326171874,20.9931,2.4139374326171876,21.2896,2.7104384326171873C21.5861,3.0069394326171874,21.5819,3.4889404326171873,21.2802,3.780238432617187L10.6745,14.386268432617188C10.38158,14.679168432617187,9.90667,14.679168432617187,9.61375,14.386268432617188C9.32083,14.093368432617188,9.32083,13.618368432617187,9.61375,13.325468432617187L20.2197,2.7199904326171875L20.2197,2.7197404326171877ZM20,10.499988432617187C20,10.085778432617188,20.3358,9.749988432617187,20.75,9.749988432617187C21.1642,9.749988432617187,21.5,10.085778432617188,21.5,10.499988432617187L21.5,18.749968432617187C21.5,20.268768432617186,20.2687,21.499968432617187,18.75,21.499968432617187L5.25,21.499968432617187C3.73125,21.499968432617187,2.5,20.268768432617186,2.5,18.749968432617187L2.5,5.2499884326171875C2.5,3.7312384326171877,3.73125,2.4999904026171875,5.25,2.4999904026171875L13.25,2.4999904026171875C13.6641,2.5001926426171877,13.9996,2.8359194326171875,13.9996,3.2499904326171873C13.9996,3.664058432617187,13.6641,3.9997884326171875,13.25,3.9999884326171875L5.25,3.9999884326171875C4.55964,3.9999884326171875,4,4.559638432617188,4,5.2499884326171875L4,18.749968432617187C4,19.440368432617188,4.55964,19.999968432617187,5.25,19.999968432617187L18.75,19.999968432617187C19.4404,19.999968432617187,20,19.440368432617188,20,18.749968432617187L20,10.499988432617187Z"
        fill="#9e9e9e"
        fill-opacity="1"
      />
    </g>
  </g>
</svg>