<svg
  xmlns="http://www.w3.org/2000/svg"
  xmlns:xlink="http://www.w3.org/1999/xlink"
  fill="none"
  version="1.1"
  width="24"
  height="24"
  viewBox="0 0 24 24"
>
  <defs>
    <clipPath id="master_svg0_100_1335">
      <rect x="0" y="0" width="24" height="24" rx="0" />
    </clipPath>
  </defs>
  <g clip-path="url(#master_svg0_100_1335)">
    <g>
      <g>
        <rect
          x="0"
          y="0"
          width="24"
          height="24"
          rx="0"
          fill="#FFFFFF"
          fill-opacity="0.009999999776482582"
        />
      </g>
      <g>
        <g>
          <path
            d="M18.999999284744263,10.500000953674316L18.999999284744263,17.500000953674316Q18.999999284744263,17.598500953674318,18.980799284744265,17.695100953674316Q18.961599284744263,17.791700953674315,18.923899284744262,17.882700953674316Q18.886199284744265,17.973700953674317,18.83149928474426,18.055600953674315Q18.77669928474426,18.137500953674316,18.707099284744263,18.207100953674317Q18.637499284744262,18.276700953674315,18.55559928474426,18.331500953674315Q18.473699284744264,18.38620095367432,18.382699284744263,18.423900953674316Q18.29169928474426,18.461600953674317,18.195099284744263,18.48080095367432Q18.098499284744264,18.500000953674316,17.999999284744263,18.500000953674316L5.999999284744263,18.500000953674316Q5.901507884744262,18.500000953674316,5.804909284744262,18.48080095367432Q5.708310284744263,18.461600953674317,5.617316284744263,18.423900953674316Q5.526321284744263,18.38620095367432,5.444429284744262,18.331500953674315Q5.362536284744262,18.276700953674315,5.292892284744263,18.207100953674317Q5.223248284744263,18.137500953674316,5.168529284744262,18.055600953674315Q5.113811284744263,17.973700953674317,5.076120284744262,17.882700953674316Q5.038429284744263,17.791700953674315,5.019214284744263,17.695100953674316Q4.999999284744263,17.598500953674318,4.999999284744263,17.500000953674316L4.999999284744263,10.500000953674316Q4.999999284744263,7.600500953674317,7.050249284744263,5.5502509536743165Q9.100509284744263,3.5000009536743164,11.999999284744263,3.5000009536743164Q14.899499284744262,3.5000009536743164,16.949699284744263,5.5502509536743165Q18.999999284744263,7.600510953674316,18.999999284744263,10.500000953674316ZM16.999999284744263,10.500000953674316Q16.999999284744263,8.428930953674316,15.535529284744262,6.964470953674317Q14.071069284744263,5.500000953674316,11.999999284744263,5.500000953674316Q9.928929284744262,5.500000953674316,8.464469284744263,6.964470953674317Q6.999999284744263,8.428930953674316,6.999999284744263,10.500000953674316L6.999999284744263,17.500000953674316L5.999999284744263,17.500000953674316L5.999999284744263,16.500000953674316L17.999999284744263,16.500000953674316L17.999999284744263,17.500000953674316L16.999999284744263,17.500000953674316L16.999999284744263,10.500000953674316Z"
            fill="#333333"
            fill-opacity="1"
          />
        </g>
        <g>
          <path
            d="M19.999999284744263,22.000000953674316L3.9999992847442627,22.000000953674316Q3.901507884744263,22.000000953674316,3.8049092847442627,21.980785953674317Q3.708310284744263,21.961570953674318,3.6173162847442626,21.923879953674316Q3.5263212847442627,21.886188953674317,3.444429284744263,21.831470953674316Q3.362536284744263,21.776751953674317,3.2928922847442625,21.707107953674317Q3.2232482847442627,21.637463953674317,3.1685292847442628,21.555570953674316Q3.113811284744263,21.473678953674316,3.076120284744263,21.382683953674317Q3.0384292847442627,21.291689953674318,3.0192142847442627,21.195090953674317Q2.9999992847442627,21.098492353674317,2.9999992847442627,21.000000953674316Q2.9999992847442627,20.901509553674316,3.0192142847442627,20.804910953674316Q3.0384292847442627,20.708311953674315,3.076120284744263,20.617317953674316Q3.113811284744263,20.526322953674317,3.1685292847442628,20.444430953674317Q3.2232482847442627,20.362537953674316,3.2928922847442625,20.292893953674316Q3.362536284744263,20.223249953674316,3.444429284744263,20.168530953674317Q3.5263212847442627,20.113812953674316,3.6173162847442626,20.076121953674317Q3.708310284744263,20.038430953674315,3.8049092847442627,20.019215953674316Q3.901507884744263,20.000000953674316,3.9999992847442627,20.000000953674316L19.999999284744263,20.000000953674316Q20.098499284744264,20.000000953674316,20.195099284744263,20.019215953674316Q20.29169928474426,20.038430953674315,20.382699284744263,20.076121953674317Q20.473699284744264,20.113812953674316,20.55559928474426,20.168530953674317Q20.637499284744262,20.223249953674316,20.707099284744263,20.292893953674316Q20.776699284744264,20.362537953674316,20.83149928474426,20.444430953674317Q20.88619928474426,20.526322953674317,20.923899284744262,20.617317953674316Q20.961599284744263,20.708311953674315,20.98079928474426,20.804910953674316Q20.999999284744263,20.901509553674316,20.999999284744263,21.000000953674316Q20.999999284744263,21.098492353674317,20.98079928474426,21.195090953674317Q20.961599284744263,21.291689953674318,20.923899284744262,21.382683953674317Q20.88619928474426,21.473678953674316,20.83149928474426,21.555570953674316Q20.776699284744264,21.637463953674317,20.707099284744263,21.707107953674317Q20.637499284744262,21.776751953674317,20.55559928474426,21.831470953674316Q20.473699284744264,21.886188953674317,20.382699284744263,21.923879953674316Q20.29169928474426,21.961570953674318,20.195099284744263,21.980785953674317Q20.098499284744264,22.000000953674316,19.999999284744263,22.000000953674316ZM20.999999284744263,21.000000953674316Q20.999999284744263,21.098492353674317,20.98079928474426,21.195090953674317Q20.961599284744263,21.291689953674318,20.923899284744262,21.382683953674317Q20.88619928474426,21.473678953674316,20.83149928474426,21.555570953674316Q20.776699284744264,21.637463953674317,20.707099284744263,21.707107953674317Q20.637499284744262,21.776751953674317,20.55559928474426,21.831470953674316Q20.473699284744264,21.886188953674317,20.382699284744263,21.923879953674316Q20.29169928474426,21.961570953674318,20.195099284744263,21.980785953674317Q20.098499284744264,22.000000953674316,19.999999284744263,22.000000953674316Q19.90149928474426,22.000000953674316,19.804899284744263,21.980785953674317Q19.708299284744264,21.961570953674318,19.617299284744263,21.923879953674316Q19.526299284744262,21.886188953674317,19.444399284744264,21.831470953674316Q19.362499284744263,21.776751953674317,19.292899284744262,21.707107953674317Q19.22319928474426,21.637463953674317,19.168499284744264,21.555570953674316Q19.11379928474426,21.473678953674316,19.076099284744263,21.382683953674317Q19.038399284744262,21.291689953674318,19.01919928474426,21.195090953674317Q18.999999284744263,21.098492353674317,18.999999284744263,21.000000953674316Q18.999999284744263,20.901509553674316,19.01919928474426,20.804910953674316Q19.038399284744262,20.708311953674315,19.076099284744263,20.617317953674316Q19.11379928474426,20.526322953674317,19.168499284744264,20.444430953674317Q19.22319928474426,20.362537953674316,19.292899284744262,20.292893953674316Q19.362499284744263,20.223249953674316,19.444399284744264,20.168530953674317Q19.526299284744262,20.113812953674316,19.617299284744263,20.076121953674317Q19.708299284744264,20.038430953674315,19.804899284744263,20.019215953674316Q19.90149928474426,20.000000953674316,19.999999284744263,20.000000953674316Q20.098499284744264,20.000000953674316,20.195099284744263,20.019215953674316Q20.29169928474426,20.038430953674315,20.382699284744263,20.076121953674317Q20.473699284744264,20.113812953674316,20.55559928474426,20.168530953674317Q20.637499284744262,20.223249953674316,20.707099284744263,20.292893953674316Q20.776699284744264,20.362537953674316,20.83149928474426,20.444430953674317Q20.88619928474426,20.526322953674317,20.923899284744262,20.617317953674316Q20.961599284744263,20.708311953674315,20.98079928474426,20.804910953674316Q20.999999284744263,20.901509553674316,20.999999284744263,21.000000953674316ZM4.999999284744263,21.000000953674316Q4.999999284744263,21.098492353674317,4.980784284744263,21.195090953674317Q4.961569284744263,21.291689953674318,4.923878284744263,21.382683953674317Q4.8861872847442624,21.473678953674316,4.831469284744263,21.555570953674316Q4.776750284744263,21.637463953674317,4.707106284744262,21.707107953674317Q4.637462284744263,21.776751953674317,4.555569284744263,21.831470953674316Q4.473677284744262,21.886188953674317,4.382682284744263,21.923879953674316Q4.291688284744263,21.961570953674318,4.195089284744263,21.980785953674317Q4.098490684744263,22.000000953674316,3.9999992847442627,22.000000953674316Q3.901507884744263,22.000000953674316,3.8049092847442627,21.980785953674317Q3.708310284744263,21.961570953674318,3.6173162847442626,21.923879953674316Q3.5263212847442627,21.886188953674317,3.444429284744263,21.831470953674316Q3.362536284744263,21.776751953674317,3.2928922847442625,21.707107953674317Q3.2232482847442627,21.637463953674317,3.1685292847442628,21.555570953674316Q3.113811284744263,21.473678953674316,3.076120284744263,21.382683953674317Q3.0384292847442627,21.291689953674318,3.0192142847442627,21.195090953674317Q2.9999992847442627,21.098492353674317,2.9999992847442627,21.000000953674316Q2.9999992847442627,20.901509553674316,3.0192142847442627,20.804910953674316Q3.0384292847442627,20.708311953674315,3.076120284744263,20.617317953674316Q3.113811284744263,20.526322953674317,3.1685292847442628,20.444430953674317Q3.2232482847442627,20.362537953674316,3.2928922847442625,20.292893953674316Q3.362536284744263,20.223249953674316,3.444429284744263,20.168530953674317Q3.5263212847442627,20.113812953674316,3.6173162847442626,20.076121953674317Q3.708310284744263,20.038430953674315,3.8049092847442627,20.019215953674316Q3.901507884744263,20.000000953674316,3.9999992847442627,20.000000953674316Q4.098490684744263,20.000000953674316,4.195089284744263,20.019215953674316Q4.291688284744263,20.038430953674315,4.382682284744263,20.076121953674317Q4.473677284744262,20.113812953674316,4.555569284744263,20.168530953674317Q4.637462284744263,20.223249953674316,4.707106284744262,20.292893953674316Q4.776750284744263,20.362537953674316,4.831469284744263,20.444430953674317Q4.8861872847442624,20.526322953674317,4.923878284744263,20.617317953674316Q4.961569284744263,20.708311953674315,4.980784284744263,20.804910953674316Q4.999999284744263,20.901509553674316,4.999999284744263,21.000000953674316Z"
            fill="#333333"
            fill-opacity="1"
          />
        </g>
        <g
          transform="matrix(0.7313537001609802,-0.6819983720779419,0.6819983720779419,0.7313536405563354,-3.8956976613837213,3.110197848937588)"
        >
          <path
            d="M1.8777562847442626,8.366830953674317L1.1217242847442628,6.978156953674317Q1.0746302847442628,6.891654953674316,1.0453162847442627,6.797626953674317Q1.0160032847442628,6.703598953674317,1.0055972847442627,6.605657953674316Q0.9951892847442627,6.5077182936743165,1.0040912847442627,6.409629953674316Q1.0129922847442627,6.3115419536743165,1.0408582847442627,6.2170739536743165Q1.0687232847442627,6.122606953674317,1.1144832847442627,6.035390953674316Q1.1602432847442627,5.948175953674316,1.2221392847442627,5.871562953674316Q1.2840352847442627,5.7949509536743165,1.3596882847442626,5.7318859536743165Q1.4353402847442627,5.6688199536743165,1.5218432847442627,5.621725953674316Q1.6083452847442627,5.5746319536743165,1.7023732847442627,5.545317953674316Q1.7964012847442627,5.516004953674316,1.8943422847442628,5.505598953674316Q1.9922819447442628,5.495190953674316,2.090370284744263,5.504092953674316Q2.1884582847442626,5.512993953674316,2.2829262847442626,5.540859953674317Q2.3773932847442625,5.568724953674316,2.4646092847442627,5.614484953674316Q2.5518242847442627,5.660244953674317,2.6284372847442627,5.722140953674316Q2.7050492847442626,5.784036953674317,2.7681142847442626,5.859689953674317Q2.8311802847442626,5.935341953674317,2.8782742847442626,6.021844953674316L3.634309284744263,7.410519953674316Q3.6813992847442627,7.497021953674317,3.7107092847442624,7.5910509536743165Q3.7400292847442627,7.6850809536743165,3.7504292847442624,7.783020953674317Q3.7608392847442627,7.880960953674316,3.751939284744263,7.979050953674316Q3.7430392847442624,8.077130953674317,3.715169284744263,8.171600953674316Q3.687309284744263,8.266070953674316,3.6415492847442628,8.353280953674316Q3.5957892847442627,8.440500953674317,3.5338892847442627,8.517110953674317Q3.4719992847442627,8.593720953674316,3.3963392847442626,8.656790953674317Q3.3206892847442626,8.719860953674317,3.2341892847442626,8.766950953674316Q3.147679284744263,8.814040953674317,3.0536592847442625,8.843360953674317Q2.9596282847442628,8.872670953674316,2.861688284744263,8.883080953674316Q2.7637482847442625,8.893480953674317,2.6656592847442626,8.884580953674316Q2.567571284744263,8.875680953674316,2.4731042847442626,8.847820953674317Q2.3786372847442627,8.819950953674317,2.2914212847442625,8.774190953674317Q2.204205284744263,8.728430953674316,2.127593284744263,8.666530953674316Q2.0509804847442625,8.604640953674316,1.9879152847442627,8.528990953674317Q1.9248500847442627,8.453330953674316,1.8777562847442626,8.366830953674317ZM3.7560292847442627,7.888670953674317Q3.7560292847442627,7.987170953674316,3.7368192847442625,8.083770953674316Q3.7175992847442627,8.180360953674317,3.6799092847442627,8.271360953674316Q3.6422192847442627,8.362350953674316,3.5874992847442626,8.444240953674317Q3.5327792847442625,8.526140953674316,3.463139284744263,8.595780953674316Q3.3934892847442626,8.665430953674317,3.311599284744263,8.720140953674317Q3.2297092847442626,8.774860953674317,3.138709284744263,8.812550953674316Q3.0477192847442627,8.850240953674316,2.9511212847442625,8.869460953674317Q2.8545222847442626,8.888670953674316,2.756030284744263,8.888670953674316Q2.6575392847442627,8.888670953674316,2.560940284744263,8.869460953674317Q2.4643412847442625,8.850240953674316,2.3733472847442627,8.812550953674316Q2.2823532847442625,8.774860953674317,2.2004602847442625,8.720140953674317Q2.1185682847442626,8.665430953674317,2.0489238847442626,8.595780953674316Q1.9792799847442626,8.526140953674316,1.9245610847442627,8.444240953674317Q1.8698422847442626,8.362350953674316,1.8321512847442627,8.271360953674316Q1.7944602847442628,8.180360953674317,1.7752452847442628,8.083760953674316Q1.7560302847442628,7.987170953674316,1.7560302847442628,7.888670953674317Q1.7560302847442628,7.790180953674317,1.7752452847442628,7.693580953674316Q1.7944602847442628,7.596990953674316,1.8321512847442627,7.505990953674316Q1.8698422847442626,7.414997953674316,1.9245610847442627,7.333104953674316Q1.9792799847442626,7.251212953674316,2.0489238847442626,7.181568953674317Q2.1185682847442626,7.1119249536743165,2.2004602847442625,7.057205953674316Q2.2823532847442625,7.002486953674317,2.3733472847442627,6.964795953674316Q2.4643412847442625,6.927104953674316,2.560940284744263,6.907889953674316Q2.6575392847442627,6.8886759536743165,2.756030284744263,6.8886759536743165Q2.8545222847442626,6.8886759536743165,2.9511212847442625,6.907889953674316Q3.0477192847442627,6.927104953674316,3.138709284744263,6.964795953674316Q3.2297092847442626,7.002486953674317,3.311599284744263,7.057205953674316Q3.3934892847442626,7.1119249536743165,3.463139284744263,7.181568953674317Q3.5327792847442625,7.251212953674316,3.5874992847442626,7.333104953674316Q3.6422192847442627,7.414997953674316,3.6799092847442627,7.505990953674316Q3.7175992847442627,7.596990953674316,3.7368192847442625,7.693580953674316Q3.7560292847442627,7.790180953674317,3.7560292847442627,7.888670953674317ZM2.9999992847442627,6.500000953674316Q2.9999992847442627,6.598492353674317,2.9807842847442627,6.695090953674317Q2.9615692847442627,6.791689953674316,2.9238782847442626,6.8826839536743165Q2.8861872847442624,6.973678953674316,2.8314692847442626,7.055570953674317Q2.7767502847442627,7.137463953674317,2.707106284744263,7.207107953674316Q2.6374622847442626,7.276751953674316,2.5555692847442626,7.331470953674317Q2.4736772847442627,7.386188953674316,2.382682284744263,7.423879953674317Q2.2916882847442626,7.461570953674316,2.1950892847442627,7.480785953674316Q2.0984906847442626,7.500000953674316,1.9999992847442627,7.500000953674316Q1.9015078847442628,7.500000953674316,1.8049092847442627,7.480785953674316Q1.7083102847442628,7.461570953674316,1.6173162847442626,7.423879953674317Q1.5263212847442627,7.386188953674316,1.4444292847442628,7.331470953674317Q1.3625362847442628,7.276751953674316,1.2928922847442625,7.207107953674316Q1.2232482847442627,7.137463953674317,1.1685292847442628,7.055570953674317Q1.1138112847442627,6.973678953674316,1.0761202847442628,6.8826839536743165Q1.0384292847442627,6.791689953674316,1.0192142847442627,6.695090953674317Q0.9999992847442627,6.598492353674317,0.9999992847442627,6.500000953674316Q0.9999992847442627,6.401509553674316,1.0192142847442627,6.304910953674316Q1.0384292847442627,6.2083119536743165,1.0761202847442628,6.117317953674316Q1.1138112847442627,6.026322953674317,1.1685292847442628,5.944430953674316Q1.2232482847442627,5.862537953674316,1.2928922847442625,5.792893953674317Q1.3625362847442628,5.723249953674316,1.4444292847442628,5.668530953674316Q1.5263212847442627,5.613812953674317,1.6173162847442626,5.576121953674316Q1.7083102847442628,5.538430953674316,1.8049092847442627,5.519215953674316Q1.9015078847442628,5.500000953674316,1.9999992847442627,5.500000953674316Q2.0984906847442626,5.500000953674316,2.1950892847442627,5.519215953674316Q2.2916882847442626,5.538430953674316,2.382682284744263,5.576121953674316Q2.4736772847442627,5.613812953674317,2.5555692847442626,5.668530953674316Q2.6374622847442626,5.723249953674316,2.707106284744263,5.792893953674317Q2.7767502847442627,5.862537953674316,2.8314692847442626,5.944430953674316Q2.8861872847442624,6.026322953674317,2.9238782847442626,6.117317953674316Q2.9615692847442627,6.2083119536743165,2.9807842847442627,6.304910953674316Q2.9999992847442627,6.401509553674316,2.9999992847442627,6.500000953674316Z"
            fill="#333333"
            fill-opacity="1"
          />
        </g>
        <g
          transform="matrix(0.7313537001609802,-0.6819983720779419,0.6819983720779419,0.7313536405563354,-0.052678237122719906,4.762846613485436)"
        >
          <path
            d="M5.109765876541138,3.470588917541504L5.767086876541137,2.032562917541504Q5.808031876541138,1.9429859175415038,5.865665876541137,1.863117917541504Q5.9233004765411374,1.7832509175415039,5.995408676541138,1.716161917541504Q6.067516976541138,1.649072917541504,6.151327876541138,1.597339917541504Q6.2351388765411375,1.545607917541504,6.327432876541137,1.5112199175415038Q6.419725876541138,1.476831917541504,6.5169538765411374,1.4611109175415038Q6.614182876541138,1.445388917541504,6.712609876541138,1.448938917541504Q6.811037876541137,1.4524879175415037,6.906881876541138,1.475170917541504Q7.002724876541138,1.4978539175415038,7.092305876541138,1.538798917541504Q7.181875876541138,1.579744917541504,7.261745876541138,1.6373789175415039Q7.3416158765411375,1.6950129175415038,7.408705876541138,1.767120917541504Q7.475795876541138,1.839229917541504,7.527525876541137,1.923040917541504Q7.579255876541138,2.006851917541504,7.6136458765411374,2.099144917541504Q7.648035876541138,2.1914379175415037,7.6637558765411375,2.2886669175415038Q7.6794758765411375,2.385895517541504,7.675925876541138,2.484322917541504Q7.672375876541137,2.582749917541504,7.649695876541138,2.678593917541504Q7.6270158765411376,2.774437917541504,7.586065876541138,2.8640149175415037L6.928745876541138,4.302048917541504Q6.887799876541138,4.3916189175415035,6.8301658765411375,4.471488917541504Q6.772531876541137,4.551358917541505,6.700423876541137,4.618448917541504Q6.628314876541138,4.685538917541503,6.544503876541138,4.737268917541504Q6.460692876541137,4.7889989175415035,6.368399876541138,4.823388917541504Q6.276106876541138,4.857778917541504,6.178877876541137,4.873498917541504Q6.081649276541138,4.889218917541504,5.983221876541138,4.885668917541504Q5.884794876541138,4.882118917541504,5.788950876541137,4.859438917541504Q5.693106876541138,4.836748917541504,5.603529876541137,4.795808917541503Q5.513952876541138,4.754858917541504,5.434084876541138,4.697228917541504Q5.354217876541138,4.6395989175415036,5.2871288765411375,4.567488917541504Q5.220039876541137,4.495378917541504,5.168306876541138,4.411568917541504Q5.116574876541137,4.327758917541503,5.0821868765411375,4.235458917541504Q5.047798876541138,4.143168917541503,5.032077876541138,4.045938917541504Q5.016355876541137,3.948708917541504,5.019905876541138,3.850288917541504Q5.0234548765411375,3.7518589175415036,5.046137876541137,3.656008917541504Q5.068820876541138,3.560168917541504,5.109765876541138,3.470588917541504ZM7.019255876541138,3.886318917541504Q7.019255876541138,3.9848089175415042,7.000040876541138,4.081408917541504Q6.980825876541138,4.178008917541504,6.943134876541138,4.268998917541504Q6.9054438765411374,4.359998917541504,6.850725876541138,4.441888917541504Q6.796006876541138,4.523778917541504,6.726362876541137,4.5934289175415035Q6.656718876541138,4.663068917541504,6.574825876541138,4.717788917541504Q6.492933876541137,4.772508917541504,6.401938876541138,4.810198917541504Q6.310944876541138,4.847888917541503,6.214345876541138,4.8670989175415045Q6.117747276541138,4.886318917541503,6.019255876541138,4.886318917541503Q5.920764476541137,4.886318917541503,5.824165876541137,4.8670989175415045Q5.727566876541138,4.847888917541503,5.636572876541138,4.810198917541504Q5.545577876541138,4.772508917541504,5.463685876541137,4.717788917541504Q5.381792876541137,4.663068917541504,5.312148876541138,4.5934289175415035Q5.242504876541138,4.523778917541504,5.187785876541137,4.441888917541504Q5.133067876541138,4.359998917541504,5.095376876541137,4.268998917541504Q5.057685876541138,4.178008917541504,5.038470876541138,4.081408917541504Q5.019255876541138,3.9848089175415042,5.019255876541138,3.886318917541504Q5.019255876541138,3.787828917541504,5.038470876541138,3.691228917541504Q5.057685876541138,3.594628917541504,5.095376876541137,3.5036389175415037Q5.133067876541138,3.412640917541504,5.187785876541137,3.330748917541504Q5.242504876541138,3.248855917541504,5.312148876541138,3.1792119175415037Q5.381792876541137,3.109567917541504,5.463685876541137,3.054848917541504Q5.545577876541138,3.000129917541504,5.636572876541138,2.962438917541504Q5.727566876541138,2.924747917541504,5.824165876541137,2.905532917541504Q5.920764476541137,2.886318917541504,6.019255876541138,2.886318917541504Q6.117747276541138,2.886318917541504,6.214345876541138,2.905532917541504Q6.310944876541138,2.924747917541504,6.401938876541138,2.962438917541504Q6.492933876541137,3.000129917541504,6.574825876541138,3.054848917541504Q6.656718876541138,3.109567917541504,6.726362876541137,3.1792119175415037Q6.796006876541138,3.248855917541504,6.850725876541138,3.330748917541504Q6.9054438765411374,3.412640917541504,6.943134876541138,3.5036389175415037Q6.980825876541138,3.594628917541504,7.000040876541138,3.691228917541504Q7.019255876541138,3.787828917541504,7.019255876541138,3.886318917541504ZM7.676575876541138,2.448288917541504Q7.676575876541138,2.546780317541504,7.657365876541138,2.643378917541504Q7.638145876541138,2.7399779175415038,7.600455876541138,2.830971917541504Q7.562765876541137,2.921966917541504,7.5080458765411375,3.003858917541504Q7.453325876541138,3.085751917541504,7.383685876541138,3.155395917541504Q7.314035876541138,3.225039917541504,7.2321458765411375,3.279758917541504Q7.150255876541138,3.3344769175415037,7.059255876541138,3.372167917541504Q6.968265876541138,3.409858917541504,6.871666876541138,3.429073917541504Q6.775067876541137,3.448288917541504,6.676575876541138,3.448288917541504Q6.578084876541138,3.448288917541504,6.481485876541138,3.429073917541504Q6.384886876541137,3.409858917541504,6.293892876541138,3.372167917541504Q6.202898876541138,3.3344769175415037,6.121005876541138,3.279758917541504Q6.039113576541138,3.225039917541504,5.969469576541138,3.155395917541504Q5.899825876541137,3.085751917541504,5.845106876541138,3.003858917541504Q5.790387876541137,2.921966917541504,5.752696876541138,2.830971917541504Q5.715005876541138,2.7399779175415038,5.695790876541138,2.643378917541504Q5.676576876541137,2.546780317541504,5.676575876541138,2.448288917541504Q5.676576876541137,2.349797517541504,5.695790876541138,2.253198917541504Q5.715005876541138,2.156599917541504,5.752696876541138,2.065605917541504Q5.790387876541137,1.9746109175415039,5.845106876541138,1.892718917541504Q5.899825876541137,1.810825917541504,5.969469576541138,1.7411819175415038Q6.039113576541138,1.671537917541504,6.121005876541138,1.616818917541504Q6.202898876541138,1.562100917541504,6.293892876541138,1.524409917541504Q6.384886876541137,1.4867189175415039,6.481485876541138,1.4675039175415039Q6.578084876541138,1.448288917541504,6.676575876541138,1.448288917541504Q6.775067876541137,1.448288917541504,6.871666876541138,1.4675039175415039Q6.968265876541138,1.4867189175415039,7.059255876541138,1.524409917541504Q7.150255876541138,1.562100917541504,7.2321458765411375,1.616818917541504Q7.314035876541138,1.671537917541504,7.383685876541138,1.7411819175415038Q7.453325876541138,1.810825917541504,7.5080458765411375,1.892718917541504Q7.562765876541137,1.9746109175415039,7.600455876541138,2.065605917541504Q7.638145876541138,2.156599917541504,7.657365876541138,2.253198917541504Q7.676575876541138,2.349797517541504,7.676575876541138,2.448288917541504Z"
            fill="#333333"
            fill-opacity="1"
          />
        </g>
        <g
          transform="matrix(-0.7313537001609802,-0.6819983720779419,-0.6819983720779419,0.7313537001609802,12.117255976389217,4.773114112195543)"
        >
          <path
            d="M7.205420617752075,5.9452537700805665L5.085390117752075,6.019282770080567Q4.986958717752075,6.022722770080566,4.889747617752075,6.006892770080566Q4.7925376177520755,5.991062770080566,4.700283617752075,5.956572770080566Q4.608029617752075,5.922075770080566,4.524276617752076,5.870247770080566Q4.440524617752075,5.818420770080566,4.368492617752075,5.751249770080566Q4.296460617752075,5.684078770080566,4.238916617752075,5.604145770080566Q4.181373617752075,5.524212770080567,4.140529617752075,5.434588770080566Q4.099685617752075,5.344965770080567,4.077111617752076,5.249095770080566Q4.054537617752075,5.1532267700805665,4.051099617752075,5.054795770080567Q4.047660617752075,4.956363870080566,4.063494617752076,4.859153270080567Q4.079325617752075,4.761942770080567,4.1138186177520755,4.669688770080566Q4.148310617752076,4.577434770080567,4.200138617752075,4.493681770080566Q4.2519656177520755,4.409929770080566,4.319136617752076,4.337897770080566Q4.386307617752076,4.265865770080566,4.466240617752075,4.208321770080566Q4.546173617752075,4.150778770080566,4.635797617752075,4.109934770080566Q4.725420617752075,4.0690907700805665,4.821290617752076,4.046516770080567Q4.917159617752075,4.023942770080566,5.015591117752075,4.020504770080566L7.135620617752075,3.9464717700805663Q7.234050617752075,3.943032770080566,7.331260617752076,3.9588667700805664Q7.428470617752075,3.9746977700805664,7.520730617752076,4.009190770080567Q7.612980617752076,4.043682770080567,7.696730617752076,4.095510770080566Q7.780480617752075,4.147337770080567,7.852520617752075,4.214508770080567Q7.924550617752075,4.281679770080567,7.982090617752075,4.3616127700805665Q8.039640617752076,4.441545770080566,8.080480617752075,4.531169770080567Q8.121320617752076,4.620792770080566,8.143900617752076,4.716662770080567Q8.166470617752076,4.812531770080566,8.169910617752075,4.9109632700805665Q8.173350617752074,5.0093946700805665,8.157510617752076,5.1066057700805665Q8.141680617752076,5.203815770080566,8.107190617752075,5.296069770080567Q8.072700617752075,5.388323770080566,8.020870617752076,5.472076770080566Q7.969040617752075,5.555828770080566,7.901870617752075,5.6278607700805665Q7.834700617752075,5.699892770080567,7.754770617752075,5.757436770080567Q7.674830617752075,5.8149797700805665,7.585210617752075,5.855823770080566Q7.495590617752075,5.896667770080566,7.399720617752076,5.919241770080566Q7.303850617752075,5.9418157700805665,7.205420617752075,5.9452537700805665ZM8.170520617752075,4.945862770080566Q8.170520617752075,5.044354170080567,8.151300617752074,5.140952770080567Q8.132090617752075,5.237551770080566,8.094400617752076,5.3285457700805665Q8.056710617752074,5.419540770080566,8.001990617752075,5.501432770080567Q7.947270617752075,5.583325770080567,7.877620617752076,5.652969770080566Q7.807980617752076,5.722613770080566,7.726090617752075,5.777332770080567Q7.644200617752075,5.832050770080566,7.553200617752076,5.869741770080567Q7.462210617752075,5.907432770080566,7.3656106177520755,5.926647770080566Q7.269010617752075,5.945862770080566,7.170520617752075,5.945862770080566Q7.072030617752075,5.945862770080566,6.9754306177520755,5.926647770080566Q6.878830617752075,5.907432770080566,6.787830617752075,5.869741770080567Q6.696840617752075,5.832050770080566,6.614950617752076,5.777332770080567Q6.5330506177520755,5.722613770080566,6.463410617752075,5.652969770080566Q6.393770617752075,5.583325770080567,6.339050617752076,5.501432770080567Q6.284330617752075,5.419540770080566,6.2466406177520755,5.3285457700805665Q6.208950617752075,5.237551770080566,6.189730617752075,5.140952770080567Q6.170520617752075,5.044354170080567,6.170520617752075,4.945862770080566Q6.170520617752075,4.847371370080566,6.189730617752075,4.750772770080566Q6.208950617752075,4.6541737700805665,6.2466406177520755,4.563179770080566Q6.284330617752075,4.472184770080567,6.339050617752076,4.390292770080566Q6.393770617752075,4.308399770080566,6.463410617752075,4.238755770080567Q6.5330506177520755,4.169111770080566,6.614950617752076,4.114392770080566Q6.696840617752075,4.059674770080567,6.787830617752075,4.021983770080566Q6.878830617752075,3.9842927700805664,6.9754306177520755,3.9650777700805664Q7.072030617752075,3.9458627700805664,7.170520617752075,3.9458627700805664Q7.269010617752075,3.9458627700805664,7.3656106177520755,3.9650777700805664Q7.462210617752075,3.9842927700805664,7.553200617752076,4.021983770080566Q7.644200617752075,4.059674770080567,7.726090617752075,4.114392770080566Q7.807980617752076,4.169111770080566,7.877620617752076,4.238755770080567Q7.947270617752075,4.308399770080566,8.001990617752075,4.390292770080566Q8.056710617752074,4.472184770080567,8.094400617752076,4.563179770080566Q8.132090617752075,4.6541737700805665,8.151300617752074,4.750772770080566Q8.170520617752075,4.847371370080566,8.170520617752075,4.945862770080566ZM6.050490617752075,5.019895770080566Q6.050490617752075,5.1183867700805665,6.031275617752075,5.214985770080567Q6.012060617752075,5.311584770080566,5.9743696177520755,5.4025787700805665Q5.936678617752075,5.493573770080566,5.881960617752076,5.575465770080567Q5.827241617752075,5.657358770080567,5.757597617752075,5.727002770080566Q5.6879536177520755,5.796646770080566,5.6060606177520755,5.851364770080567Q5.524168617752075,5.906083770080566,5.433173617752075,5.943774770080567Q5.342179617752075,5.981462770080567,5.245580617752076,6.000682770080567Q5.1489820177520755,6.019892770080567,5.050490617752075,6.019892770080567Q4.951999217752075,6.019892770080567,4.855400617752075,6.000682770080567Q4.758801617752075,5.981462770080567,4.667807617752075,5.943774770080567Q4.576812617752076,5.906083770080566,4.494920617752075,5.851364770080567Q4.413027617752075,5.796646770080566,4.3433836177520755,5.727002770080566Q4.273739617752075,5.657358770080567,4.219020617752075,5.575465770080567Q4.164302617752075,5.493573770080566,4.126611617752075,5.4025787700805665Q4.088920617752075,5.311584770080566,4.069705617752075,5.214985770080567Q4.050490617752075,5.1183867700805665,4.050490617752075,5.019895770080566Q4.050490617752075,4.921404370080566,4.069705617752075,4.824805770080566Q4.088920617752075,4.728206770080567,4.126611617752075,4.637212770080566Q4.164302617752075,4.546217770080567,4.219020617752075,4.464325770080566Q4.273739617752075,4.382432770080566,4.3433836177520755,4.312788770080567Q4.413027617752075,4.2431447700805665,4.494920617752075,4.188425770080566Q4.576812617752076,4.133707770080567,4.667807617752075,4.096016770080566Q4.758801617752075,4.058325770080566,4.855400617752075,4.039110770080566Q4.951999217752075,4.019895770080566,5.050490617752075,4.019895770080566Q5.1489820177520755,4.019895770080566,5.245580617752076,4.039110770080566Q5.342179617752075,4.058325770080566,5.433173617752075,4.096016770080566Q5.524168617752075,4.133707770080567,5.6060606177520755,4.188425770080566Q5.6879536177520755,4.2431447700805665,5.757597617752075,4.312788770080567Q5.827241617752075,4.382432770080566,5.881960617752076,4.464325770080566Q5.936678617752075,4.546217770080567,5.9743696177520755,4.637212770080566Q6.012060617752075,4.728206770080567,6.031275617752075,4.824805770080566Q6.050490617752075,4.921404370080566,6.050490617752075,5.019895770080566Z"
            fill="#333333"
            fill-opacity="1"
          />
        </g>
      </g>
    </g>
  </g>
</svg>